<svg width="43" height="40" viewBox="0 0 43 40" fill="none" xmlns="http://www.w3.org/2000/svg">
<path fill-rule="evenodd" clip-rule="evenodd" d="M38.6667 40H36C33.7947 40 32 38.2053 32 36V25.3333C32 23.128 33.7947 21.3333 36 21.3333H38.6667C39.136 21.3333 39.5813 21.4293 40 21.5787V21.3333C40 11.04 31.6267 2.66667 21.3333 2.66667C11.04 2.66667 2.66667 11.04 2.66667 21.3333V21.5787C3.08533 21.4293 3.53067 21.3333 4 21.3333H6.66667C8.872 21.3333 10.6667 23.128 10.6667 25.3333V36C10.6667 38.2053 8.872 40 6.66667 40H4C1.79467 40 0 38.2053 0 36V28V25.3333V21.3333C0 9.57067 9.57067 0 21.3333 0C33.096 0 42.6667 9.57067 42.6667 21.3333V25.3333V28V36C42.6667 38.2053 40.872 40 38.6667 40ZM2.66667 36C2.66667 36.736 3.26533 37.3333 4 37.3333H6.66667C7.40133 37.3333 8 36.736 8 36V25.3333C8 24.5973 7.40133 24 6.66667 24H4C3.26533 24 2.66667 24.5973 2.66667 25.3333V28V36ZM38.6667 24H36C35.2653 24 34.6667 24.5973 34.6667 25.3333V36C34.6667 36.736 35.2653 37.3333 36 37.3333H38.6667C39.4013 37.3333 40 36.736 40 36V28V25.3333C40 24.5973 39.4013 24 38.6667 24Z" fill="#106E83"/>
</svg>
