<svg width="95" height="72" viewBox="0 0 95 72" fill="none" xmlns="http://www.w3.org/2000/svg">
<path d="M94.8644 34.9776C94.0204 42.2779 87.4456 48.1973 81.4097 54.0782C75.269 60.0612 69.249 66.3978 59.7184 69.221C49.5956 72.2197 37.9284 72.8328 27.7247 69.9814C17.6641 67.17 10.3303 60.8479 5.1951 53.9846C0.445142 47.6362 -0.457591 40.3748 0.182135 33.1703C0.800276 26.2088 3.02562 19.3257 8.77004 13.7239C14.5796 8.05867 22.8712 3.98856 32.2019 1.94584C41.5734 -0.105803 51.4818 0.264755 60.8509 2.32211C70.5856 4.45978 79.9456 7.8955 86.0693 13.7746C92.3609 19.8151 95.7359 27.4396 94.8644 34.9776Z" fill="#E7F7FB"/>
</svg>
