<svg width="83" height="72" viewBox="0 0 83 72" fill="none" xmlns="http://www.w3.org/2000/svg">
<path d="M67.8438 70.4531H18.3125C16.4375 70.4531 15.1094 68.6562 15.5782 66.8594L18.8594 55.4531C20.5782 49.5156 25.2657 44.9062 31.2813 43.3437L32.2188 43.1094C33.0782 42.875 34.0157 43.1875 34.6407 43.8906C38.3907 48.1875 43.1563 48.6562 48.2344 48.6562C53.3125 48.6562 58.0782 48.1875 61.8282 43.8906C62.4532 43.1875 63.3907 42.875 64.25 43.1094L65.2657 43.3437C71.2813 44.9062 75.9688 49.5156 77.6875 55.4531L79.0938 60.2969M53.8594 11.2344C51.3594 16.2344 43.3907 18.8125 33.2344 16.5469M54.0938 10.7656C56.4376 13.8906 60.5001 15.1406 64.0938 13.9687M32.8438 17.0937C32.8438 8.1875 40.0313 1 48.8594 1C57.6875 1 64.9532 8.1875 64.9532 17.0937C64.9532 28.8906 57.7657 40.1406 48.8594 40.1406C39.9532 40.1406 32.8438 28.9687 32.8438 17.0937ZM65.1876 70.4531H78.3907C80.2657 70.4531 81.5938 68.6562 81.1251 66.8594L77.8438 55.4531L65.1876 70.4531ZM26.5938 32.7969C22.5313 30.6875 19.5626 24.8281 19.5626 18.7344C19.5626 12.9531 24.2501 8.34374 29.9532 8.34374C31.6719 8.34374 33.3126 8.73437 34.7969 9.51562L26.5938 32.7969ZM23.0001 31.9375C16.6719 33.5 12.0626 35.2969 9.95318 42.0937L7.92193 49.4375C7.60943 50.6094 8.46881 51.7812 9.64068 51.7812H20.0313L23.0001 31.9375ZM13.7032 27.6406C11.2032 26.3125 9.40631 22.7969 9.40631 19.0469C9.40631 15.5312 12.2188 12.7187 15.7344 12.7187C16.8282 12.7187 17.7657 12.9531 18.7032 13.4219L13.7032 27.6406ZM10.8126 27.0937C6.98443 28.0312 4.17193 29.125 2.92193 33.2656L1.67193 37.7969C1.43756 38.5 1.98443 39.2031 2.76568 39.2031H10.6563L10.8126 27.0937Z" stroke="#836310" stroke-width="2" stroke-miterlimit="10" stroke-linecap="round" stroke-linejoin="round"/>
</svg>
