<svg width="81" height="75" viewBox="0 0 81 75" fill="none" xmlns="http://www.w3.org/2000/svg">
<path d="M32.4062 69.3452C31.854 69.3452 31.4062 69.7929 31.4062 70.3452C31.4062 70.8975 31.854 71.3452 32.4062 71.3452V69.3452ZM70.5312 59.762L70.186 58.8235C69.8661 58.9412 69.6282 59.2137 69.5548 59.5464C69.4813 59.8792 69.5824 60.2265 69.8229 60.4679L70.5312 59.762ZM72.875 49.5708L72.5297 48.6323C72.2099 48.75 71.972 49.0224 71.8985 49.3552C71.825 49.688 71.9261 50.0353 72.1667 50.2767L72.875 49.5708ZM75.2188 38.5956L74.8735 37.6571C74.5536 37.7748 74.3157 38.0472 74.2423 38.38C74.1688 38.7128 74.2699 39.0601 74.5104 39.3015L75.2188 38.5956ZM51.1562 26.4445L50.1827 26.2162C50.1129 26.5135 50.1829 26.8264 50.3726 27.0657C50.5623 27.305 50.8509 27.4445 51.1562 27.4445V26.4445ZM32.2869 33.0654C32.0469 33.5628 32.2555 34.1606 32.7529 34.4006C33.2503 34.6406 33.8481 34.432 34.0881 33.9346L32.2869 33.0654ZM40.375 18.6051L41.2757 19.0397L41.2788 19.033L40.375 18.6051ZM44.5156 1.82875L44.9875 2.71043C45.0023 2.70248 45.017 2.69416 45.0314 2.68546L44.5156 1.82875ZM44.9062 1.59357L44.4129 0.723735C44.4054 0.728013 44.3979 0.732388 44.3905 0.736861L44.9062 1.59357ZM50.5312 2.37751L49.8229 3.0834V3.0834L50.5312 2.37751ZM50.8438 2.69109L51.5521 1.9852V1.9852L50.8438 2.69109ZM53.9688 14.4502L53.0038 14.1879C53.0007 14.1992 52.9978 14.2105 52.9952 14.2219L53.9688 14.4502ZM26.9375 30.5803C29.8195 30.5803 32.1875 32.9515 32.1875 35.8518H34.1875C34.1875 31.8534 30.9305 28.5803 26.9375 28.5803V30.5803ZM32.1875 35.8518V67.2095H34.1875V35.8518H32.1875ZM32.1875 67.2095C32.1875 70.1098 29.8195 72.481 26.9375 72.481V74.481C30.9305 74.481 34.1875 71.2078 34.1875 67.2095H32.1875ZM26.9375 72.481H8.1875V74.481H26.9375V72.481ZM8.1875 72.481C5.30553 72.481 2.9375 70.1098 2.9375 67.2095H0.9375C0.9375 71.2078 4.19447 74.481 8.1875 74.481V72.481ZM2.9375 67.2095V35.8518H0.9375V67.2095H2.9375ZM2.9375 35.8518C2.9375 32.9515 5.30552 30.5803 8.1875 30.5803V28.5803C4.19448 28.5803 0.9375 31.8534 0.9375 35.8518H2.9375ZM8.1875 30.5803H26.9375V28.5803H8.1875V30.5803ZM32.4062 71.3452H66V69.3452H32.4062V71.3452ZM66 71.3452C69.993 71.3452 73.25 68.0721 73.25 64.0737H71.25C71.25 66.974 68.882 69.3452 66 69.3452V71.3452ZM73.25 64.0737C73.25 62.1811 72.5327 60.3537 71.2396 59.0561L69.8229 60.4679C70.7173 61.3654 71.25 62.6737 71.25 64.0737H73.25ZM70.8765 60.7005C73.6088 59.6952 75.5938 56.9721 75.5938 53.8825H73.5938C73.5938 56.1236 72.1412 58.1041 70.186 58.8235L70.8765 60.7005ZM75.5938 53.8825C75.5938 51.9899 74.8764 50.1624 73.5833 48.8649L72.1667 50.2767C73.0611 51.1742 73.5938 52.4825 73.5938 53.8825H75.5938ZM73.2203 50.5093C75.9525 49.504 77.9375 46.7809 77.9375 43.6912H75.9375C75.9375 45.9323 74.485 47.9129 72.5297 48.6323L73.2203 50.5093ZM77.9375 43.6912C77.9375 42.7564 77.7626 41.6556 77.4422 40.6374C77.1271 39.6364 76.6357 38.6007 75.9271 37.8897L74.5104 39.3015C74.8956 39.688 75.2635 40.377 75.5344 41.2378C75.7999 42.0815 75.9375 42.9798 75.9375 43.6912H77.9375ZM75.564 39.5341C78.2963 38.5288 80.2812 35.8057 80.2812 32.716H78.2812C78.2812 34.9572 76.8287 36.9377 74.8735 37.6571L75.564 39.5341ZM80.2812 32.716C80.2812 28.7177 77.0243 25.4445 73.0312 25.4445V27.4445C75.9132 27.4445 78.2812 29.8157 78.2812 32.716H80.2812ZM73.0312 25.4445H51.1562V27.4445H73.0312V25.4445ZM34.0881 33.9346L41.2756 19.0397L39.4744 18.1705L32.2869 33.0654L34.0881 33.9346ZM41.2788 19.033C42.8294 15.7573 43.5625 12.3178 43.5625 8.72744H41.5625C41.5625 12.0357 40.8893 15.1813 39.4712 18.1772L41.2788 19.033ZM43.5625 8.72744V5.98364H41.5625V8.72744H43.5625ZM43.5625 5.98364C43.5625 5.43641 43.7205 4.69031 44.0163 4.01188C44.3243 3.30532 44.6956 2.86662 44.9875 2.71043L44.0438 0.947074C43.1637 1.41804 42.5585 2.35124 42.1829 3.21256C41.7951 4.10201 41.5625 5.11978 41.5625 5.98364H43.5625ZM45.0314 2.68546L45.422 2.45028L44.3905 0.736861L43.9998 0.972043L45.0314 2.68546ZM45.3996 2.46341C46.8028 1.66753 48.655 1.91143 49.8229 3.0834L51.2396 1.67162C49.4388 -0.135379 46.6034 -0.518636 44.4129 0.723735L45.3996 2.46341ZM49.8229 3.0834L50.1354 3.39698L51.5521 1.9852L51.2396 1.67162L49.8229 3.0834ZM50.1354 3.39698C52.1379 5.40635 53.2812 8.13222 53.2812 11.0009H55.2812C55.2812 7.59799 53.9246 4.3659 51.5521 1.9852L50.1354 3.39698ZM53.2812 11.0009V11.7848H55.2812V11.0009H53.2812ZM53.2812 11.7848C53.2812 12.6696 53.2077 13.4377 53.0038 14.1879L54.9337 14.7125C55.1986 13.738 55.2812 12.7815 55.2812 11.7848H53.2812ZM52.9952 14.2219L50.1827 26.2162L52.1298 26.6728L54.9423 14.6785L52.9952 14.2219ZM32.2086 52.4871L16.7086 72.556L18.2914 73.7785L33.7914 53.7096L32.2086 52.4871Z" fill="#836310"/>
</svg>
