<svg width="30" height="50" viewBox="0 0 30 50" fill="none" xmlns="http://www.w3.org/2000/svg">
<path d="M28.8461 44.5652C28.8461 46.9565 26.7692 48.913 24.2307 48.913H5.76919C3.23073 48.913 1.15381 46.9565 1.15381 44.5652V5.43479C1.15381 3.04348 3.23073 1.08696 5.76919 1.08696H24.2307C26.7692 1.08696 28.8461 3.04348 28.8461 5.43479V44.5652Z" stroke="#836310" stroke-opacity="0.3" stroke-width="2" stroke-miterlimit="10" stroke-linecap="round" stroke-linejoin="round"/>
<path d="M15 45.6522C16.2745 45.6522 17.3076 44.6789 17.3076 43.4783C17.3076 42.2776 16.2745 41.3044 15 41.3044C13.7254 41.3044 12.6923 42.2776 12.6923 43.4783C12.6923 44.6789 13.7254 45.6522 15 45.6522Z" stroke="#836310" stroke-opacity="0.3" stroke-width="2" stroke-miterlimit="10" stroke-linecap="round" stroke-linejoin="round"/>
<path d="M28.8461 7.6087H1.73071" stroke="#836310" stroke-opacity="0.3" stroke-width="2" stroke-miterlimit="10" stroke-linecap="round" stroke-linejoin="round"/>
<path d="M28.8461 38.0435H1.73071" stroke="#836310" stroke-opacity="0.3" stroke-width="2" stroke-miterlimit="10" stroke-linecap="round" stroke-linejoin="round"/>
<path d="M15.5769 4.34782H14.4231" stroke="#836310" stroke-opacity="0.3" stroke-width="2" stroke-miterlimit="10" stroke-linecap="round" stroke-linejoin="round"/>
</svg>
