<svg width="334" height="161" viewBox="0 0 334 161" fill="none" xmlns="http://www.w3.org/2000/svg">
<path d="M332.284 18.9314C330.603 -2.98497 307.436 0.999833 279.785 5.58236C252.134 10.1649 42.1379 7.57476 20.964 5.68198C-0.210041 3.78919 1.28459 102.181 1.28459 102.181C1.41101 119.437 3.74535 123.623 11.2161 125.5C14.3163 126.279 19.7199 126.397 24.6135 127.123C25.3555 127.233 150.175 127.5 150.175 127.5C150.175 127.5 160.724 135.753 158.669 160.658C158.669 160.658 163.34 130.373 180.217 126.787C214.219 126.687 296.35 128.58 310.736 128.082C331.101 127.484 334.028 40.8479 332.284 18.9314Z" fill="#E7F7FB"/>
<path d="M159.272 160.957L158.027 160.558C159.895 138.144 151.737 130.274 150.429 129.178C140.153 131.37 9.42333 129.975 5.56219 124.595C2.32381 120.113 0.7669 112.84 0.642347 102.181C0.642347 101.782 0.0818591 20.5254 5.0017 12.3565C8.55146 6.57855 13.9072 3.98843 21.0067 4.68577C41.6203 6.57855 251.928 9.16867 279.765 4.58615L280.7 4.3869C307.79 -0.0959966 331.144 -3.98118 332.95 18.7322C334.071 33.0775 333.012 112.342 329.462 118.817C325.85 125.392 319.747 128.779 310.779 129.078C303.555 129.278 287.239 128.979 268.369 128.58C249.624 128.182 197.261 127.684 180.259 127.783C164.067 131.27 159.272 160.658 159.272 160.957ZM150.865 127.186C150.989 127.285 159.459 133.86 159.584 153.684C162.075 144.32 168.115 128.381 180.135 125.791H180.197C197.199 125.791 249.561 126.189 268.369 126.588C287.239 126.986 303.555 127.385 310.717 127.086C319.311 126.787 325.165 123.699 328.466 117.522C331.704 111.446 332.7 32.679 331.642 19.0311C330.023 -1.68991 307.229 2.09564 280.762 6.37931L279.828 6.57855C251.928 11.1611 41.558 8.57095 20.8822 6.67817C14.2186 6.08045 9.17422 8.47133 5.93585 13.7512C1.38967 21.2227 1.88788 101.982 1.88788 102.181C1.95015 112.243 3.44479 119.116 6.37178 123.101C9.98382 128.082 140.402 129.278 150.429 127.186C150.603 127.116 150.698 127.052 150.865 127.186Z" fill="#106E83"/>
</svg>
