<svg width="203" height="173" viewBox="0 0 203 173" fill="none" xmlns="http://www.w3.org/2000/svg">
<path d="M109.549 171.241C92.0659 170.075 76.4481 164.129 60.5808 157.252C40.9369 148.739 16.5381 144.54 6.38996 126.535C-4.13175 107.866 0.453964 84.3778 8.21034 64.3324C15.7114 44.947 30.4904 28.9291 48.6369 17.3525C66.0654 6.23382 86.629 1.18266 107.544 0.961726C128.249 0.743001 149.144 4.66355 165.77 16.1151C182.182 27.4186 192.168 44.8672 198.026 63.28C203.724 81.1882 204.057 100.176 198.246 118.187C192.406 136.285 182.414 154.096 165.447 164.244C149.106 174.019 128.72 172.519 109.549 171.241Z" fill="#E7F7FB"/>
</svg>
