<svg width="194" height="70" viewBox="0 0 194 70" fill="none" xmlns="http://www.w3.org/2000/svg">
<path d="M16.1411 68.7685L13.374 61.3075H6.07212L4.76546 64.6149C4.6886 64.7688 4.61173 64.9995 4.45801 65.3072C4.30428 65.6149 4.22742 65.9226 4.15056 66.2302C4.0737 66.5379 3.99684 66.8456 3.99684 67.1533C3.99684 67.7686 4.15056 68.1532 4.45801 68.384C4.76546 68.6147 5.38036 68.7685 6.3027 68.8455V69.6146H0V68.8455C0.768622 68.7685 1.38352 68.5378 1.92156 67.9994C2.45959 67.4609 2.8439 66.9225 2.99763 66.3841L11.2219 45.3853H11.9136L20.3685 68.9224H22.9049V69.6916H12.836V68.9224H16.1411V68.7685ZM13.1434 60.5383L9.91523 51.308L6.3027 60.5383H13.1434Z" fill="#836310"/>
<path d="M46.732 61.4607H47.6544L47.3469 69.5372H46.4246C46.3477 68.5373 45.9634 68.0758 45.2716 68.0758C44.8873 68.0758 44.3493 68.3065 43.7344 68.6911C42.1972 69.5372 40.6599 69.9987 39.0458 69.9987C37.3548 69.9987 35.7407 69.5372 34.2035 68.6911C32.7431 67.7681 31.5133 66.5374 30.5141 64.8452C29.5918 63.1529 28.9769 61.23 28.8231 59.0762V56.6917C28.9769 54.8457 29.3612 53.2304 29.9761 51.7689C30.591 50.3074 31.4365 49.0767 32.4357 48.0768C33.4349 47.0768 34.5878 46.3076 35.8176 45.7692C37.0474 45.2308 38.3541 45 39.7376 45C40.4293 45 40.8905 45.0769 41.2748 45.1538C41.5823 45.2308 41.9666 45.3846 42.274 45.6154C42.5815 45.8461 42.9658 45.923 43.2732 46.0769C43.5807 46.1538 44.0419 46.2307 44.7336 46.2307C45.5022 46.2307 45.9634 45.8461 46.194 45.0769H47.1163L47.1932 52.9996H46.3477C46.1171 50.5382 45.4254 48.769 44.503 47.5383C43.5038 46.3845 42.0434 45.7692 40.045 45.7692C38.9689 45.7692 37.8929 46.0769 36.8937 46.6922C35.8945 47.3076 35.1258 48.3075 34.5109 49.6921C33.896 51.0766 33.5886 52.9227 33.5886 55.2303V61.23C33.5886 63.3068 33.9729 64.999 34.6647 66.2297C35.3564 67.4604 36.2019 68.3065 37.1243 68.768C38.1235 69.2296 39.0458 69.4603 39.9682 69.4603C40.8905 69.4603 41.8129 69.2296 42.7352 68.768C43.6575 68.3065 44.503 67.4604 45.2716 66.3066C45.8097 64.9221 46.3477 63.3837 46.732 61.4607Z" fill="#836310"/>
<path d="M68.3308 68.7685L65.5638 61.3075H58.2619L56.9552 64.6149C56.8783 64.7688 56.8015 64.9995 56.6477 65.3072C56.494 65.6149 56.4172 65.9226 56.3403 66.2302C56.2634 66.5379 56.1866 66.8456 56.1866 67.1533C56.1866 67.7686 56.3403 68.1532 56.6477 68.384C56.9552 68.6147 57.5701 68.7685 58.4924 68.8455V69.6146H52.1897V68.8455C52.9584 68.7685 53.5733 68.5378 54.1113 67.9994C54.6493 67.4609 55.0336 66.9225 55.1874 66.3841L63.4116 45.3853H64.1034L72.5582 68.9224H75.0947V69.6916H64.872V68.9224H68.3308V68.7685ZM65.3332 60.5383L62.105 51.308L58.4924 60.5383H65.3332Z" fill="#836310"/>
<path d="M91.3121 45.2315C94.3866 45.2315 96.923 45.9237 98.7677 47.2313C100.689 48.5389 101.996 50.1541 102.841 52.0001C103.61 53.8461 103.994 55.6152 103.994 57.3073C103.994 59.6148 103.456 61.6916 102.457 63.5376C101.458 65.3836 100.074 66.845 98.2297 67.9218C96.4619 68.9986 94.4635 69.5371 92.2345 69.5371H80.3977V68.7679H83.2416V45.9237H80.3977V45.2315H91.3121ZM92.465 68.7679C93.3105 68.7679 94.2329 68.5371 95.1552 68.1526C96.1544 67.768 97.0768 66.6911 97.9991 64.999C98.8446 63.3068 99.3058 60.8455 99.3058 57.615C99.3058 55.3075 99.1521 53.3846 98.8446 51.9232C98.5372 50.3849 97.9991 49.2311 97.3842 48.385C96.7693 47.5389 95.9238 46.9236 94.9246 46.539C93.9254 46.1544 92.7725 46.0006 91.389 46.0006H87.3921V68.7679H92.465Z" fill="#836310"/>
<path d="M113.679 45.9237H111.604V45.2315H129.129L129.513 52.231H128.591C128.283 50.0773 127.668 48.539 126.669 47.4621C125.67 46.4621 124.286 45.9237 122.519 45.9237H117.83V56.1539H119.137C120.136 56.1539 120.981 55.9231 121.75 55.3847C122.519 54.8463 122.98 53.6156 123.133 51.7695H123.902V61.4613H123.133C122.903 60.2306 122.672 59.3076 122.442 58.6922C122.211 58.0769 121.827 57.6153 121.366 57.3846C120.904 57.1538 120.213 57 119.367 57H117.83V68.8455H123.133C124.748 68.8455 126.054 68.3839 127.13 67.4609C128.206 66.5379 128.975 64.6919 129.513 62.0766H130.435L129.667 69.6146H110.835V68.8455H113.679V45.9237Z" fill="#836310"/>
<path d="M151.111 64.0771L158.028 45.3084H165.023V46.0007H162.179V68.8462H165.023V69.6154H155.185V68.8462H158.028V47.4622L149.804 70H149.112L140.504 47.6929V65.7694C140.504 66.5386 140.658 67.2309 140.965 67.7693C141.273 68.3077 142.041 68.6923 143.271 68.8462V69.6154H136.661V68.8462C137.891 68.8462 138.659 68.4616 139.044 67.7693C139.428 67.077 139.658 66.3847 139.658 65.6924V48.0775C139.658 46.693 138.89 46.0007 137.429 46.0007H136.738V45.3084H143.732L151.111 64.0771Z" fill="#836310"/>
<path d="M180.549 59.8456L173.017 45.9237H170.788V45.2315H180.549V45.9237H177.859L184.162 58.1534L188.466 50.0772C188.773 49.5388 189.004 49.0004 189.081 48.5389V47.462C189.004 47.0774 188.697 46.6929 188.389 46.3852C188.005 46.0775 187.544 45.9237 186.852 45.9237C186.698 45.9237 186.467 45.9237 186.083 45.9237V45.2315H194V45.9237C192.847 45.9237 192.002 46.3083 191.387 47.0005C190.772 47.6928 190.08 48.7696 189.388 50.0772L184.623 58.8456V68.6909H187.467V69.4601H177.705V68.6909H180.549V59.8456Z" fill="#836310"/>
<path d="M62.8995 17.3261C61.5957 20.8489 60.2919 24.2951 58.9882 27.7413C57.6844 31.1874 56.6107 34.7102 55.7671 38.3861C55.3837 40.1475 55.0769 41.9855 54.7701 43.7469C54.4633 45.5083 54.3867 47.3462 54.4633 49.1842C54.54 50.0266 54.6167 50.869 54.8468 51.7114C55.0769 52.5538 55.4603 53.3196 56.0739 53.9323C56.6874 54.6215 57.4543 55.081 58.3746 55.2342C59.2949 55.3873 60.1386 55.2342 60.9822 54.9279C61.0589 54.8513 61.1356 54.9278 61.2122 55.0044C61.2889 55.081 61.3656 55.1576 61.2122 55.2342C60.5987 55.7703 59.9085 56 59.1416 56C58.3746 56 57.6844 55.8468 56.9175 55.5405C56.2273 55.2342 55.537 54.7747 54.9235 54.162C54.31 53.5494 53.8498 53.0133 53.543 52.4007C52.6227 50.7158 52.1626 48.8013 52.1626 46.8102C52.1626 44.7425 52.2393 42.8279 52.4694 40.9134C52.6994 38.8456 53.0829 36.8545 53.543 34.8634C54.0799 32.8722 54.6167 30.9577 55.307 29.0431C55.9972 26.9754 56.6874 24.9843 57.4543 22.9932C58.2213 21.002 58.9882 19.0109 59.7551 16.9432C60.3686 15.335 61.0589 13.6502 61.7491 11.8888C62.4393 10.1274 62.8228 8.36601 62.8995 6.52804C61.6724 6.98753 60.522 7.67677 59.525 8.44259C58.528 9.28499 57.6077 10.204 56.7641 11.123C55.537 12.4249 54.4633 13.8033 53.3897 15.1818C52.316 16.5603 51.2423 18.0153 50.1686 19.4704C48.0212 22.3805 45.9505 25.4438 44.0332 28.5071C43.343 29.5792 42.6528 30.6514 41.9626 31.7235C41.2723 32.7957 40.5821 33.9444 39.9686 35.0165C39.7385 35.3994 39.5851 35.7824 39.355 36.1653C39.1249 36.5482 38.9716 37.0077 38.7415 37.3906C38.6648 37.3906 38.6648 37.3906 38.5881 37.4672L38.5114 37.6203C38.4347 37.6969 38.4347 37.6969 38.358 37.6203C38.2813 37.6203 38.2813 37.5437 38.2813 37.4672C38.358 37.4672 38.358 37.4672 38.358 37.3906C38.2046 37.314 38.1279 37.2374 38.1279 37.1608C38.5881 35.3995 39.0483 33.6381 39.5084 31.8767C39.9686 30.1153 40.5054 28.3539 41.0422 26.5925C41.6558 24.8311 42.2693 23.1463 42.8829 21.4615C43.4964 19.7767 44.1099 18.0919 44.7235 16.4071C45.2603 14.8755 45.7971 13.3438 46.334 11.8122C46.8708 10.2806 47.4077 8.74892 47.9445 7.29386C48.1746 6.60462 48.4814 5.8388 48.7881 4.9964C49.0949 4.23058 49.2483 3.38818 49.4017 2.62236C49.4784 2.54578 49.4784 2.4692 49.4784 2.31603L49.2483 2.46919C49.0182 2.69894 48.7881 2.85211 48.4814 3.08185C48.1746 3.23502 47.8678 3.46476 47.6378 3.69451C45.4137 5.30273 43.4964 7.21728 41.8092 9.36157C40.1219 11.5059 38.5114 13.7267 37.0543 16.0242C33.6031 21.2318 30.5354 26.5925 27.6978 32.0298C24.9369 37.4672 22.0993 42.9811 19.2617 48.495C19.185 48.5715 19.0316 48.5715 18.8016 48.495C18.7249 48.6481 18.6482 48.8013 18.4948 49.1076C18.4181 49.2608 18.2647 49.2608 18.1113 49.1842C17.9579 49.1076 17.8813 48.9545 17.8813 48.8779C18.7249 45.4317 19.7219 42.0621 20.7956 38.7691C21.8692 35.476 22.8662 32.1064 23.7865 28.6602C24.17 27.2052 24.5535 25.6735 24.9369 24.1419C25.3204 22.6103 25.6272 21.1552 26.0106 19.6236C26.3174 18.1685 26.5475 16.5603 26.7775 15.0286C27.0076 13.4204 26.8542 11.8888 26.3174 10.4337C26.0873 9.82107 25.8572 9.28499 25.4738 8.67234C25.167 8.13626 24.7068 7.67677 24.17 7.29386C23.5565 6.83437 22.9429 6.6812 22.2527 6.60462C21.5625 6.60462 20.8722 6.6812 20.2587 6.83437C19.0316 7.1407 17.8046 7.60019 16.5775 8.21284C15.3504 8.8255 14.2767 9.51474 13.203 10.2806C11.209 11.7356 9.59852 13.497 8.21806 15.5647C6.8376 17.6324 6.14738 19.9299 6.07069 22.4571C5.99399 24.8311 6.60753 26.9754 7.75791 29.0431C8.90829 31.1109 10.5955 32.5659 12.8196 33.5615C12.8963 33.6381 12.973 33.7146 13.0497 33.7912C13.1263 33.9444 13.0497 33.9444 12.8196 33.9444C11.4391 33.6381 10.2121 33.102 9.13837 32.183C8.06468 31.3406 7.14437 30.345 6.37745 29.1963C5.61053 28.0476 4.997 26.8223 4.61354 25.5204C4.23008 24.2185 4 22.84 4 21.5381C4 20.1596 4.23008 18.7812 4.69023 17.4027C5.15038 16.0242 5.76392 14.7989 6.45415 13.6502C7.22107 12.5014 8.06468 11.4293 9.06167 10.4337C10.0587 9.43816 11.1324 8.59575 12.2827 7.82993C13.5098 7.06411 14.8136 6.37488 16.2707 5.68564C17.6512 5.07298 19.1083 4.69007 20.6422 4.69007C22.0993 4.61349 23.4031 4.9964 24.6302 5.68564C25.8572 6.37488 26.8542 7.37044 27.6211 8.51917C28.5414 9.97423 29.0783 11.5059 29.155 13.1141C29.2317 14.7223 29.155 16.3305 28.8482 17.9388C28.5414 19.7001 28.158 21.4615 27.6978 23.1463C27.3144 24.8311 26.8542 26.5925 26.3941 28.2773C26.2407 28.8134 26.164 29.3495 26.0106 29.8855C25.8572 30.4216 25.7038 30.9577 25.5505 31.4938C26.0106 30.7279 26.3941 29.9621 26.7775 29.1963C27.161 28.4305 27.5445 27.6647 28.0046 26.8988C29.4618 24.0653 31.0723 21.3084 32.6828 18.5514C34.2933 15.7945 35.9806 13.1141 37.8212 10.5103C38.6648 9.28499 39.5851 8.13626 40.5054 6.98753C41.4257 5.8388 42.4994 4.76666 43.6498 3.84767C44.8768 2.77552 46.1039 1.77996 47.331 0.937555C47.8678 0.631227 48.4047 0.401482 48.9415 0.3249C49.4784 0.248318 50.0152 0.401484 50.5521 0.784393C51.0889 1.1673 51.4724 1.62679 51.6257 2.16287C51.7791 2.69894 51.7791 3.3116 51.7024 3.92425C51.6257 4.53691 51.3957 5.22615 51.1656 5.8388C50.9355 6.45146 50.7821 7.06412 50.6287 7.52361C50.0919 9.20841 49.4784 10.8932 48.8648 12.578C48.2513 14.2628 47.6378 15.871 46.9475 17.5558C46.4874 18.7812 46.0272 20.0065 45.5671 21.2318C45.1069 22.4571 44.6468 23.6824 44.1866 24.9077C44.8769 23.6824 45.6438 22.4571 46.4107 21.2318C47.1776 20.0065 47.9445 18.8577 48.7114 17.709C49.7084 16.254 50.7054 14.7989 51.8558 13.3438C52.9295 11.9654 54.0799 10.5869 55.307 9.20841C56.3807 8.05968 57.531 6.98753 58.8348 6.06855C60.0619 5.14956 61.519 4.53691 63.1295 4.30716C63.4363 4.23058 63.8198 4.30716 64.2032 4.46033C64.6634 4.69007 64.8935 4.91982 64.9702 5.22615C65.2769 7.29386 65.2002 9.28499 64.5867 11.2761C64.2799 13.4204 63.6664 15.4115 62.8995 17.3261Z" fill="#0F2D37"/>
<path d="M78.7748 31.2652C78.8515 31.1887 79.0048 31.1887 79.1582 31.2652C79.3883 31.3418 79.3883 31.495 79.3883 31.5716C79.0815 32.7969 78.5447 33.8691 77.7778 34.8647C77.0875 35.8603 76.3206 36.8559 75.6304 37.7749C74.0966 39.6895 72.486 41.4509 70.7988 43.1357C70.4153 43.5186 69.9552 44.0547 69.4184 44.6674C68.8815 45.2801 68.3447 45.663 67.7311 45.8161C67.271 45.8927 66.8875 45.8161 66.4274 45.5864C65.9672 45.3566 65.6604 45.0503 65.4304 44.6674C64.9702 44.1313 64.7401 43.5186 64.6634 42.8294C64.5868 42.1401 64.5868 41.5275 64.6634 40.9148C64.8168 39.3831 65.2003 37.928 65.6604 36.4729C66.1973 35.0944 66.8108 33.7159 67.501 32.414C66.8875 32.414 66.3507 32.2608 65.7371 32.0311C65.0469 31.7247 64.5101 31.2653 64.1266 30.6526C63.8198 30.0399 63.6664 29.3507 63.8198 28.5848C64.0499 26.9766 64.5101 25.3683 65.2003 23.76C65.8905 22.1518 66.5807 20.6201 67.4244 19.2416C67.8078 18.5524 68.1913 17.8631 68.6514 17.0207C69.1116 16.2548 69.6484 15.5656 70.1853 15.1061C70.6454 14.7998 71.1056 14.6466 71.7191 14.7232C72.3326 14.7998 72.7161 15.1061 73.0229 15.5656C73.3296 16.0251 73.483 16.5612 73.3296 17.0973C73.1763 17.7099 73.0229 18.1694 72.8695 18.6289C72.5627 19.4714 72.256 20.2372 71.9492 21.003C71.6424 21.7689 71.259 22.5347 70.8755 23.224C69.5717 25.981 67.8845 28.3551 65.8905 30.4228C66.0439 30.6526 66.1973 30.7292 66.4274 30.8057C66.7341 30.8823 67.1943 30.8057 67.6544 30.6526C68.1146 30.4228 68.498 30.2697 68.8815 30.1165C69.0349 30.0399 69.1883 30.0399 69.3417 30.1165C69.5717 30.1931 69.7251 30.2697 69.9552 30.3462C70.1853 30.4994 70.262 30.576 70.4153 30.7292C70.492 30.8823 70.5687 31.0355 70.4153 31.1887C69.9552 32.1843 69.495 33.1798 69.1883 34.1754C68.8048 35.171 68.498 36.1666 68.1146 37.1622C67.8845 38.0812 67.5777 39.0002 67.3477 39.9192C67.1176 40.8382 66.8875 41.8338 66.8108 42.7528C66.7341 42.9825 66.7341 43.2889 66.7341 43.6718C66.8108 43.7484 66.8108 43.825 66.8875 43.9781C66.9642 44.0547 66.9642 44.2079 66.8875 44.2845C66.9642 44.2079 67.0409 44.2079 67.1176 44.1313C67.1943 44.0547 67.271 44.0547 67.271 44.0547C67.9612 43.5952 68.6514 43.0591 69.4184 42.3699C70.4153 41.5275 71.3356 40.6085 72.1026 39.6129C72.9462 38.6173 73.7898 37.6217 74.5567 36.6261C75.2469 35.7071 76.0139 34.7881 76.7041 33.8691C77.5477 33.1798 78.1612 32.2608 78.7748 31.2652ZM67.6544 24.4493C67.0409 25.9044 66.504 27.3595 66.1973 28.8146C66.1973 28.9677 66.1206 29.1975 66.0439 29.4272C66.7341 28.5082 67.3477 27.5126 67.9612 26.5171C68.5747 25.5215 69.1116 24.5259 69.6484 23.4537C70.1853 22.2284 70.7221 20.9265 71.1823 19.4714C71.3356 19.0884 71.4123 18.7055 71.5657 18.3226C71.7191 17.9397 71.7958 17.5568 71.8725 17.1739V16.9441C71.5657 17.5568 71.1056 18.1694 70.7221 18.7055C70.262 19.3182 69.8785 19.9309 69.5717 20.4669C68.7281 21.8455 68.1146 23.224 67.6544 24.4493Z" fill="#0F2D37"/>
<path d="M112.595 0.0195156C113.592 -0.0570661 114.589 0.0960973 115.663 0.402424C116.737 0.708751 117.657 1.09166 118.501 1.70431C119.344 2.31696 120.035 3.0062 120.571 3.8486C121.108 4.691 121.338 5.68656 121.338 6.7587C121.262 7.83085 121.108 8.97957 120.725 9.97513C120.341 11.0473 119.958 12.0428 119.574 13.115C119.191 14.1105 118.731 15.1061 118.194 16.0251C117.657 17.0206 117.12 17.9396 116.507 18.9352C115.356 20.7731 114.053 22.5345 112.595 24.1427C111.138 25.751 109.604 27.3592 107.917 28.8142C107.841 28.8908 107.764 28.8908 107.687 28.8142C107.61 28.7376 107.61 28.7376 107.687 28.5845C109.528 26.7465 111.138 24.832 112.519 22.7643C113.899 20.6966 115.126 18.4757 116.277 16.1017C116.814 15.0295 117.274 13.8042 117.657 12.6555C118.117 11.4302 118.424 10.2815 118.654 9.05615C118.808 8.52008 118.884 7.90743 118.884 7.29477C118.884 6.68212 118.884 6.06947 118.731 5.53339C118.654 4.92074 118.424 4.46125 118.117 4.00176C117.811 3.54227 117.35 3.15936 116.737 2.92962C115.663 2.47013 114.513 2.47013 113.362 2.85303C112.212 3.23594 111.138 3.61885 110.141 4.07834C109.221 4.53783 108.301 5.07391 107.457 5.60998C106.613 6.14605 105.77 6.7587 104.926 7.37136C101.475 10.0517 98.8676 13.2681 97.027 17.0206C96.4901 18.0162 96.03 19.0118 95.6465 20.0839C95.2631 21.1561 94.9563 22.3048 94.7262 23.3769C94.4961 24.5257 94.4195 25.6744 94.4961 26.7465C94.5728 27.8952 94.8796 28.9674 95.3398 29.9629C96.03 31.5712 97.1804 32.8731 98.7142 33.792C100.248 34.711 101.705 35.5534 103.239 36.3192C105.003 37.1616 106.844 38.0806 108.607 38.9996C110.371 39.9186 111.905 41.2205 113.132 42.8287C114.436 44.59 114.82 46.3514 114.283 48.1128C113.746 49.8742 112.595 51.3292 110.832 52.4014C108.914 53.6267 106.844 54.1628 104.619 54.1628C102.395 54.1628 100.248 53.7033 98.2541 52.7077C97.4871 52.3248 96.7202 51.8653 96.03 51.2527C95.3398 50.64 94.6495 50.0273 94.1127 49.2615C93.4991 48.5723 93.039 47.7299 92.6555 46.8875C92.2721 46.0451 92.042 45.2027 91.9653 44.3603C91.8886 44.1306 92.042 44.1306 92.2721 44.2071C92.5022 44.3603 92.6555 44.4369 92.6555 44.5135C93.1924 45.5856 93.8826 46.7343 94.5728 47.8065C95.3398 48.8786 96.2601 49.7976 97.4104 50.3337C98.4841 50.8697 99.6345 51.2527 100.785 51.4824C101.935 51.7121 103.086 51.7121 104.313 51.4824C105.463 51.3292 106.613 50.9463 107.764 50.4103C108.914 49.8742 109.758 49.1084 110.448 48.1128C111.138 47.0407 111.445 45.9685 111.215 44.8964C110.985 43.8242 110.448 42.9053 109.604 41.9863C108.914 41.3736 108.147 40.8375 107.304 40.3781C106.46 39.9186 105.616 39.5357 104.85 39.1528C103.929 38.6933 103.086 38.2338 102.165 37.8509C101.322 37.468 100.401 37.0085 99.5578 36.549C97.8706 35.63 96.3368 34.5578 94.8796 33.256C93.4225 31.9541 92.4255 30.4224 91.7352 28.5845C90.9683 26.4402 90.8149 24.2193 91.2751 21.9985C91.7352 19.701 92.4255 17.6333 93.3458 15.6422C94.2661 13.7276 95.3398 11.9663 96.6435 10.2815C97.9473 8.59666 99.3277 7.14161 100.938 5.76314C102.549 4.38467 104.389 3.08278 106.383 1.85747C108.301 0.785331 110.371 0.172679 112.595 0.0195156Z" fill="#0F2D37"/>
<path d="M131.462 30.5754C131.539 30.4222 131.692 30.4222 131.999 30.5754C132.306 30.7286 132.382 30.8817 132.306 31.1115C131.615 32.7963 130.772 34.4045 129.775 35.9362C128.855 37.4678 127.781 38.9995 126.631 40.4545C126.17 41.0672 125.634 41.6033 125.173 42.1394C124.637 42.6754 124.023 43.0583 123.333 43.2115C122.719 43.3647 122.182 43.2881 121.646 43.1349C121.109 42.9818 120.649 42.6754 120.188 42.3691C119.575 41.833 119.038 41.1438 118.655 40.4545C118.271 39.7653 118.041 38.9995 117.888 38.1571C117.734 37.3147 117.734 36.5488 117.734 35.7064C117.811 34.864 117.888 34.0982 117.964 33.3324C118.118 32.49 118.271 31.6475 118.424 30.8051C118.655 29.9627 118.885 29.1203 119.191 28.3545C119.421 27.6653 119.805 26.8228 120.188 25.9804C120.572 25.138 121.109 24.4488 121.799 23.9893C122.029 23.8361 122.336 23.8361 122.796 24.0659C123.256 24.2956 123.486 24.5254 123.409 24.9083C123.333 25.5209 123.103 26.1336 122.796 26.7463C122.489 27.3589 122.182 27.895 121.952 28.5077C121.339 29.8861 120.879 31.2646 120.572 32.5665C120.265 33.8684 120.035 35.2469 119.958 36.6254C119.805 38.0805 119.958 39.459 120.418 40.6843C120.725 41.7564 121.262 42.3691 121.799 42.3691C122.412 42.3691 123.026 42.1394 123.716 41.6033C124.406 41.0672 125.02 40.4545 125.634 39.6887C126.247 38.9229 126.707 38.3868 127.014 37.9273C127.858 36.7786 128.624 35.6298 129.315 34.4045C130.235 33.1026 130.849 31.8773 131.462 30.5754ZM124.79 20.3899C124.406 20.4665 123.946 20.3899 123.409 20.1602C122.873 19.9304 122.566 19.6241 122.412 19.1646C122.336 18.8583 122.412 18.5519 122.566 18.2456C122.643 18.0924 122.719 17.9393 122.873 17.6329C123.026 17.4032 123.103 17.25 123.256 17.0203C123.333 16.8671 123.486 16.6374 123.64 16.4076C123.87 16.1013 124.176 15.9481 124.56 16.0247C124.943 16.1013 125.25 16.2545 125.557 16.331C125.787 16.4842 126.017 16.6374 126.324 16.9437C126.631 17.25 126.707 17.5564 126.554 17.8627C126.4 18.0924 126.324 18.2456 126.17 18.4753C126.094 18.7051 125.94 18.8583 125.787 19.088C125.71 19.2412 125.634 19.3178 125.634 19.4709C125.634 19.5475 125.557 19.7007 125.48 19.7773C125.327 20.1602 125.097 20.3133 124.79 20.3899Z" fill="#0F2D37"/>
<path d="M155.697 30.8823C155.774 30.7291 155.927 30.7291 156.234 30.8823C156.54 31.0355 156.617 31.1886 156.54 31.3418C155.85 33.3329 154.93 35.2474 153.933 37.0854C152.936 38.9233 151.709 40.6081 150.405 42.2929C150.022 42.829 149.561 43.3651 149.025 44.0543C148.488 44.6669 147.874 45.1264 147.184 45.2796C146.647 45.4327 146.11 45.3562 145.65 45.0498C145.19 44.7435 144.807 44.4372 144.5 43.9777C143.963 43.2885 143.733 42.3695 143.81 41.3739C143.886 40.3784 144.04 39.4594 144.116 38.617C144.27 37.698 144.5 36.7791 144.73 35.8601C144.96 34.9411 145.267 34.0221 145.65 33.1032C145.957 32.1842 146.34 31.2652 146.801 30.4228C147.184 29.5804 147.644 28.6614 148.104 27.7425C148.181 27.6659 148.258 27.5127 148.334 27.2064C148.488 26.9001 148.564 26.5937 148.718 26.2874C148.871 25.9811 148.948 25.6748 149.025 25.3685C149.101 25.0621 149.101 24.909 148.948 24.8324C148.795 24.7558 148.641 24.7558 148.411 24.909C148.181 25.0621 147.951 25.2153 147.798 25.445C147.567 25.6748 147.337 25.9045 147.184 26.0577C146.954 26.2874 146.877 26.4406 146.801 26.5172C146.11 27.283 145.497 28.1254 144.96 28.9678C144.423 29.8102 143.886 30.7291 143.426 31.5715C142.966 32.2608 142.506 33.0266 142.046 33.7924C141.586 34.5582 141.202 35.324 140.742 36.0132C140.665 36.243 140.589 36.4727 140.512 36.6259C140.435 36.8556 140.282 37.0088 140.052 37.162C139.822 37.2386 139.592 37.2386 139.285 37.162C138.978 37.0854 138.748 36.9322 138.595 36.7791C138.211 36.243 137.981 35.7069 137.981 35.0943C137.904 34.4816 137.981 33.869 138.134 33.2563C138.288 32.6437 138.518 31.9544 138.748 31.3418C139.055 30.7291 139.285 30.1931 139.515 29.657C139.745 29.0443 140.052 28.4317 140.358 27.8956C140.665 27.283 140.972 26.6703 141.355 26.1343C141.509 25.9045 141.662 25.5982 141.892 25.2919C141.892 25.1387 141.892 25.0621 141.969 25.0621H141.892C141.662 25.2153 141.355 25.3685 141.125 25.6748C140.052 26.5938 139.131 27.6659 138.364 28.9678C137.598 30.2696 136.831 31.5715 136.217 32.7968C135.91 33.4095 135.527 34.0221 135.22 34.6348C134.913 35.2474 134.607 35.9367 134.3 36.5493C133.993 37.162 133.763 37.698 133.533 38.3107C133.303 38.9233 132.996 39.4594 132.689 40.0721C132.689 40.1486 132.689 40.2252 132.689 40.3018C132.689 40.3784 132.689 40.455 132.689 40.5315C132.613 40.6847 132.536 40.7613 132.382 40.7613C132.229 40.7613 132.076 40.6847 131.922 40.6081C131.769 40.5315 131.616 40.3784 131.462 40.3018C131.309 40.1486 131.232 40.0721 131.232 39.9955C130.695 38.617 130.465 37.2385 130.542 35.7835C130.619 34.3285 130.849 32.95 131.155 31.495C131.385 30.8057 131.616 30.0399 131.769 29.4273C131.999 28.738 132.229 28.1254 132.613 27.4361C132.919 26.8235 133.226 26.2108 133.61 25.5216C133.993 24.8324 134.376 24.2963 134.913 23.9134C135.067 23.7602 135.297 23.6837 135.68 23.7602C135.987 23.8368 136.294 23.9134 136.601 24.1432C136.907 24.2963 137.137 24.5261 137.291 24.7558C137.444 24.9855 137.521 25.2153 137.444 25.5216C137.214 26.1343 136.907 26.7469 136.524 27.3596C136.14 27.9722 135.757 28.5849 135.45 29.1209C134.837 30.4228 134.376 31.6481 134.07 32.95C133.916 33.5626 133.763 34.1753 133.686 34.788C133.61 35.4006 133.456 36.0898 133.379 36.7025L133.993 35.324C134.3 34.5582 134.683 33.7924 135.067 33.0266C135.45 32.2608 135.834 31.5715 136.217 30.8057C136.677 30.1165 137.061 29.3507 137.521 28.6614C137.981 27.9722 138.441 27.2064 138.901 26.5172C139.208 25.9811 139.668 25.3685 140.128 24.8324C140.589 24.2197 141.202 23.8368 141.816 23.6837C142.276 23.5305 142.736 23.5305 143.119 23.7602C143.503 23.99 143.81 24.2963 144.04 24.7558C144.346 25.2919 144.423 25.9045 144.193 26.5938C143.963 27.283 143.81 27.8956 143.58 28.4317C143.273 29.1975 142.966 29.9633 142.583 30.7291C142.276 31.495 141.892 32.2608 141.586 33.0266C141.509 33.1032 141.509 33.2563 141.432 33.3329C141.355 33.4861 141.355 33.5626 141.279 33.7158C141.586 33.1032 141.892 32.5671 142.199 32.031C142.506 31.4949 142.813 30.9589 143.119 30.4228C143.656 29.5804 144.116 28.738 144.653 27.8956C145.19 27.0532 145.727 26.2874 146.417 25.5982C146.801 25.2153 147.261 24.8324 147.798 24.3729C148.334 23.9134 148.871 23.8368 149.485 24.0666C150.175 24.2963 150.635 24.8324 150.865 25.5982C151.095 26.364 151.095 27.0532 151.019 27.6659C150.942 28.5849 150.712 29.5038 150.252 30.4228C149.792 31.3418 149.408 32.1842 149.101 33.0266C148.795 33.9456 148.411 34.7879 148.104 35.7069C147.798 36.6259 147.491 37.5449 147.184 38.4638C147.031 38.9233 146.877 39.3828 146.724 39.9189C146.57 40.3784 146.417 40.9145 146.264 41.3739C146.187 41.6803 146.11 41.9866 146.034 42.2163C145.957 42.4461 145.88 42.7524 145.804 43.0587C145.727 43.2119 145.727 43.3651 145.727 43.6714C145.727 43.9777 145.727 44.1309 145.804 44.284C146.034 44.5138 146.264 44.5904 146.57 44.5138C146.877 44.4372 147.184 44.3606 147.337 44.284L147.721 43.9011C147.951 43.6714 148.104 43.5182 148.334 43.2885C148.488 43.1353 148.718 42.9056 148.948 42.6758C149.561 41.9866 150.098 41.2974 150.635 40.6081C151.709 39.1531 152.706 37.6215 153.549 36.0132C154.393 34.2519 155.16 32.5671 155.697 30.8823Z" fill="#0F2D37"/>
<path d="M171.112 30.7277C171.189 30.5745 171.342 30.5745 171.649 30.7277C171.956 30.8808 172.032 31.034 171.956 31.1872C170.959 32.4891 169.655 33.6378 168.044 34.4802C166.434 35.3992 164.747 35.7821 162.983 35.7055C162.753 36.2416 162.446 36.7011 162.139 37.1606C161.832 37.6201 161.526 38.0795 161.142 38.539C160.835 38.922 160.452 39.3049 160.145 39.6878C159.838 40.0707 159.455 40.3004 158.995 40.5302C158.535 40.7599 158.151 40.8365 157.614 40.9131C157.154 40.9897 156.617 40.8365 156.157 40.6833C155.083 40.2238 154.393 39.5346 154.01 38.539C153.626 37.5435 153.55 36.4713 153.703 35.3226C153.856 34.1739 154.24 33.1017 154.777 32.0296C155.313 30.9574 156.004 30.1916 156.771 29.6555C156.617 28.4302 156.694 27.2815 157.154 26.1328C157.614 25.0606 158.304 24.2182 159.378 23.6055C160.375 23.0695 161.372 22.9929 162.446 23.3758C163.52 23.7587 164.286 24.4479 164.747 25.3669C165.207 26.3625 165.36 27.3581 165.207 28.5068C165.053 29.5789 164.823 30.6511 164.517 31.6467C164.21 32.7188 163.826 33.791 163.366 34.7099C164.823 34.6334 166.28 34.1739 167.661 33.408C169.041 32.7954 170.192 31.8764 171.112 30.7277ZM160.989 35.6289C160.989 35.5523 161.065 35.4758 161.142 35.3992C160.759 35.246 160.375 35.0928 160.068 34.9397C159.762 34.7099 159.378 34.5568 159.071 34.2504C158.458 33.6378 157.921 33.0251 157.538 32.2593C157.307 32.7954 157.001 33.3315 156.771 33.9441C156.541 34.4802 156.387 35.0928 156.234 35.7055C156.157 35.9353 156.157 36.2416 156.157 36.7777C156.157 37.2371 156.157 37.7732 156.234 38.2327C156.31 38.6922 156.464 39.0751 156.617 39.3814C156.847 39.6878 157.154 39.7644 157.538 39.6112C158.304 39.3814 158.995 38.8454 159.608 38.003C160.068 37.084 160.605 36.3182 160.989 35.6289ZM160.989 25.2903C160.682 25.5201 160.375 25.7498 160.068 26.1328C159.838 26.4391 159.608 26.822 159.378 27.1283C158.841 28.1239 158.535 29.1194 158.458 30.115C158.535 30.2682 158.535 30.3448 158.458 30.3448C158.381 31.3403 158.611 32.1827 159.071 33.0251C159.532 33.791 160.298 34.327 161.449 34.5568C161.986 33.3315 162.446 32.1062 162.829 30.7277C162.983 30.0384 163.136 29.196 163.213 28.3536C163.289 27.5112 163.213 26.7454 162.983 25.9796C162.906 25.8264 162.906 25.5967 162.829 25.3669C162.753 25.1372 162.676 24.984 162.446 24.9074C162.216 24.7543 161.986 24.7543 161.679 24.9074C161.449 25.0606 161.219 25.1372 160.989 25.2903Z" fill="#0F2D37"/>
<path d="M191.052 30.6518C191.129 30.4986 191.359 30.4986 191.666 30.6518C191.972 30.805 192.049 30.9581 191.972 31.1879C190.822 33.4088 189.518 35.4765 188.061 37.391C187.448 38.2334 186.834 39.0758 186.144 39.9948C185.454 40.8372 184.763 41.6796 183.92 42.3689C183.46 42.8284 182.923 43.0581 182.386 43.2113C181.849 43.3645 181.312 43.2879 180.775 42.905C180.085 42.4455 179.702 41.9094 179.472 41.2201C179.318 40.5309 179.241 39.7651 179.241 39.0758C179.395 36.9315 179.855 34.9404 180.699 33.1024C181.542 31.2645 182.386 29.3499 183.229 27.4354C183.306 27.2056 183.383 26.8993 183.536 26.6695C183.613 26.3632 183.69 26.1335 183.766 25.8271C183.843 25.674 183.843 25.5208 183.843 25.2911V25.2145L183.69 25.2911C183.306 25.4442 182.923 25.7506 182.616 26.0569C182.309 26.3632 181.926 26.7461 181.619 27.0524C180.852 27.8183 180.162 28.5841 179.472 29.4265C178.858 30.2689 178.244 31.1113 177.631 32.0303C177.017 32.8727 176.481 33.6385 175.944 34.4809C175.407 35.3233 174.87 36.0891 174.333 37.0081C173.873 37.6208 173.413 38.2334 172.953 38.8461C172.493 39.4588 171.802 39.6885 170.959 39.6119C170.729 39.5353 170.422 39.4588 170.192 39.229C169.885 38.9993 169.732 38.8461 169.655 38.5398C169.348 37.4676 169.272 36.3189 169.502 35.1702C169.732 34.0214 169.962 32.9493 170.345 31.8771C170.652 30.805 171.189 29.7328 171.802 28.7373C172.416 27.7417 173.26 26.8993 174.18 26.2866C174.333 26.1335 174.487 26.1335 174.793 26.1335C175.023 26.21 175.33 26.2866 175.56 26.3632C175.79 26.5164 175.944 26.6695 176.097 26.8227C176.25 27.0524 176.25 27.2056 176.174 27.3588C175.637 28.2778 175.1 29.1967 174.563 30.0392C174.026 30.8816 173.566 31.8771 173.183 32.7961C172.876 33.4853 172.646 34.2512 172.569 34.8638C172.493 35.5531 172.339 36.2423 172.263 36.9315C172.493 36.6252 172.646 36.3189 172.876 36.0891C173.029 35.7828 173.183 35.6297 173.26 35.4765C173.566 35.017 173.873 34.6341 174.103 34.1746C174.333 33.7151 174.64 33.3322 174.947 32.8727C175.56 31.9537 176.174 31.0347 176.711 30.1923C177.324 29.2733 177.938 28.3543 178.551 27.5119C178.935 27.0524 179.395 26.5164 179.932 25.8271C180.469 25.1379 181.082 24.6018 181.696 24.1423C182.309 23.6828 182.999 23.4531 183.69 23.4531C184.38 23.4531 185.07 23.836 185.684 24.6018C186.22 25.2145 186.374 25.9037 186.22 26.7461C186.067 27.5885 185.914 28.3543 185.684 29.0436C185.377 29.9626 184.993 30.805 184.533 31.6474C184.073 32.4898 183.69 33.4088 183.383 34.3278C183.076 35.2467 182.769 36.2423 182.539 37.1613C182.309 38.0803 182.079 39.0758 181.772 40.0714C181.696 40.3012 181.619 40.6075 181.542 40.8372C181.466 41.067 181.389 41.2967 181.312 41.6031C181.159 42.2923 181.389 42.5986 182.156 42.5986C182.386 42.5986 182.616 42.522 182.846 42.3689C183.076 42.2157 183.306 42.0626 183.536 41.8328C183.766 41.6031 183.92 41.3733 184.15 41.2201C184.38 41.067 184.457 40.8372 184.533 40.6841C185.837 39.0758 186.987 37.4676 188.061 35.7828C189.058 34.1746 190.055 32.4898 191.052 30.6518Z" fill="#0F2D37"/>
</svg>
