<svg width="68" height="79" viewBox="0 0 68 79" fill="none" xmlns="http://www.w3.org/2000/svg">
<path d="M53.6875 44.9198L59.5 55.1541M52.6719 66.7917H66.1094L59.5 55.1541M52.6719 66.7917L46.5 77.7669L31.4219 51.5833M52.6719 66.7917L59.5 55.1541M14.3125 44.9198L1.96878 66.7917H15.4063L21.5782 77.5317L34 55.9734M13.2969 10.897L20.4063 9.64265C20.875 9.56425 21.2657 9.25067 21.5 8.8587L25.0157 2.50878C25.4063 1.80324 26.3438 1.48966 27.0469 1.88163L33.5313 5.01739C33.9219 5.25258 34.4688 5.25258 34.8594 5.01739L41.4219 1.96003C42.2032 1.64645 43.0625 1.88163 43.4532 2.66557L46.8907 9.09389C47.1251 9.48586 47.5157 9.79943 47.9844 9.87783L55.0938 11.2889C55.8751 11.4457 56.4219 12.2296 56.3438 13.0136L55.3282 20.2258C55.2501 20.6962 55.4063 21.1666 55.7188 21.4802L60.6407 26.8109C61.1876 27.4381 61.1876 28.3788 60.6407 28.9276L55.6407 34.18C55.3282 34.4936 55.1719 34.9639 55.2501 35.4343L56.1094 42.6465C56.1876 43.5089 55.6407 44.2144 54.8594 44.3712L47.7501 45.6255C47.2813 45.7039 46.8907 46.0175 46.6563 46.4095L43.1407 52.7594C42.75 53.4649 41.8125 53.7785 41.1094 53.3865L34.625 50.2508C34.2344 50.0156 33.6875 50.0156 33.2969 50.2508L26.7344 53.3081C25.9532 53.6217 25.0938 53.3865 24.7032 52.6026L21.2657 46.1743C21.0313 45.7823 20.6407 45.4687 20.1719 45.3903L12.9844 44.0576C12.2032 43.9009 11.6563 43.1169 11.7344 42.333L12.75 35.1207C12.8282 34.6504 12.6719 34.18 12.3594 33.8664L7.43753 28.5356C6.89066 27.9085 6.89066 26.9677 7.43753 26.419L12.4375 21.1666C12.75 20.853 12.9063 20.3826 12.8282 19.9123L11.9688 12.7C11.8907 11.8377 12.4375 11.0537 13.2969 10.897ZM48.0626 27.5947C48.0626 35.388 41.7666 41.7056 34 41.7056C26.2335 41.7056 19.9375 35.388 19.9375 27.5947C19.9375 19.8014 26.2335 13.4838 34 13.4838C41.7666 13.4838 48.0626 19.8014 48.0626 27.5947Z" stroke="#836310" stroke-width="2" stroke-miterlimit="10" stroke-linecap="round" stroke-linejoin="round"/>
</svg>
