<svg width="40" height="40" viewBox="0 0 40 40" fill="none" xmlns="http://www.w3.org/2000/svg">
<g clip-path="url(#clip0)">
<path fill-rule="evenodd" clip-rule="evenodd" d="M37.418 14.9646L33.7179 18.666C32.0617 20.3234 29.858 21.2364 27.5118 21.2376H26.2569C25.567 21.2376 25.007 20.679 25.007 19.9877C25.007 19.2965 25.567 18.7378 26.2569 18.7378H27.5118C29.1891 18.7366 30.766 18.0826 31.9502 16.8983L35.6503 13.1969C38.0969 10.7504 38.0969 6.76909 35.6503 4.32135C33.2038 1.87482 29.2225 1.87482 26.7747 4.32135L23.0746 8.02146C21.8891 9.20694 21.2351 10.7851 21.2351 12.4611V13.7147C21.2351 14.406 20.6764 14.9646 19.9852 14.9646C19.2952 14.9646 18.7353 14.406 18.7353 13.7147V12.4611C18.7353 10.1174 19.6482 7.91245 21.3069 6.25377L25.007 2.55366C28.4285 -0.866519 33.9966 -0.866519 37.418 2.55366C40.8395 5.97631 40.8395 11.5445 37.418 14.9646ZM13.7134 27.5094C13.3938 27.5094 13.0742 27.3868 12.8302 27.1427C12.3421 26.6547 12.3421 25.8631 12.8302 25.375L26.6273 11.5767C27.1154 11.0886 27.907 11.0886 28.395 11.5767C28.8831 12.066 28.8831 12.8563 28.395 13.3443L14.5979 27.1427C14.3538 27.3868 14.0342 27.5094 13.7134 27.5094ZM13.7134 21.2376H12.4598C10.7838 21.2376 9.20685 21.8905 8.02261 23.0747L4.32246 26.7761C3.13698 27.9603 2.48416 29.5372 2.48416 31.2133C2.48416 32.888 3.13698 34.465 4.32246 35.6492C5.50794 36.8347 7.08364 37.4887 8.7609 37.4887C10.4369 37.4887 12.0126 36.8347 13.1981 35.6492L16.8982 31.9503C18.0837 30.7636 18.7365 29.1879 18.7353 27.5131V26.2595C18.7353 25.5683 19.2952 25.0084 19.9852 25.0084C20.6764 25.0084 21.2351 25.5683 21.2351 26.2595V27.5119C21.2363 29.8556 20.3246 32.0593 18.6659 33.718L14.9658 37.4181C13.3083 39.0756 11.1046 39.9885 8.7609 39.9885C6.41596 39.9885 4.21221 39.0756 2.55477 37.4181C0.897327 35.7607 -0.015625 33.557 -0.015625 31.2133C-0.015625 28.8683 0.897327 26.6646 2.55477 25.0071L6.25492 21.307C7.91236 19.6508 10.1161 18.7378 12.4598 18.7378H13.7134C14.4046 18.7378 14.9645 19.2965 14.9645 19.9877C14.9645 20.679 14.4046 21.2376 13.7134 21.2376Z" fill="#1B1B1B"/>
</g>
<defs>
<clipPath id="clip0">
<rect width="40" height="40" fill="white"/>
</clipPath>
</defs>
</svg>
