<svg width="50" height="40" viewBox="0 0 50 40" fill="none" xmlns="http://www.w3.org/2000/svg">
<path fill-rule="evenodd" clip-rule="evenodd" d="M46.0154 40H3.20462C1.52 40 0 38.62 0 36.9231V3.07692C0 1.38 1.52 0 3.20462 0H46.0154C47.7 0 49.0723 1.38 49.0723 3.07692V33.8462V36.9231C49.0723 38.62 47.7 40 46.0154 40ZM46.1538 3.07692H3.07692V24.3815L14.4215 14.2354C15.0246 13.6938 15.9477 13.7215 16.5169 14.2969L27.7815 25.6308L34.3569 20.3369C34.9646 19.8477 35.8415 19.8954 36.3938 20.4508L46.1538 30.2723V3.07692ZM46.1538 34.6231L35.1985 23.6L28.6231 28.8938C28.0169 29.3831 27.14 29.3369 26.5862 28.78L15.3754 17.4985L3.07692 28.4969V36.9231H46.1538V34.6231ZM32.2554 12.3108C32.2554 10.6123 33.6277 9.23077 35.3154 9.23077C37 9.23077 38.3708 10.6123 38.3708 12.3108C38.3708 14.0062 37 15.3846 35.3154 15.3846C33.6277 15.3846 32.2554 14.0062 32.2554 12.3108ZM35.3154 12.3077C35.3138 12.3077 35.3123 12.3092 35.3108 12.3092L35.3154 13.8462V12.3077Z" fill="#1B1B1B"/>
</svg>
