<svg width="30" height="30" viewBox="0 0 30 30" fill="none" xmlns="http://www.w3.org/2000/svg">
<path fill-rule="evenodd" clip-rule="evenodd" d="M16.4062 30C9.06563 30 3.09938 24.2578 2.82188 16.9266C2.80312 16.4091 3.20625 15.9741 3.72375 15.9544C4.2375 15.9412 4.67625 16.3387 4.69594 16.8562C4.935 23.175 10.0781 28.125 16.4062 28.125C22.8684 28.125 28.125 22.8684 28.125 16.4062C28.125 10.0763 23.1731 4.93219 16.8525 4.69594C16.3341 4.67625 15.9309 4.24125 15.9497 3.72469C15.9694 3.20625 16.4016 2.80031 16.9219 2.82188C24.2559 3.09656 30 9.06281 30 16.4062C30 23.9016 23.9016 30 16.4062 30ZM14.0625 13.125C14.0625 13.6425 13.6425 14.0625 13.125 14.0625H1.04719C1.01156 14.0662 0.975 14.0691 0.9375 14.0691C0.42 14.0691 0 13.6556 0 13.1381V13.125V13.1241C0.0075 5.895 5.895 0.0075 13.1241 0C13.1241 0 13.1269 0 13.1297 0H13.1363C13.1372 0 13.1372 0 13.1372 0C13.6547 0 14.0747 0.42 14.0747 0.936563C14.0747 0.988125 14.07 1.03875 14.0625 1.0875V13.125ZM12.1875 1.91531C6.73594 2.37281 2.37281 6.73594 1.91531 12.1875H12.1875V1.91531Z" fill="#106E83"/>
</svg>
