<svg width="40" height="40" viewBox="0 0 40 40" fill="none" xmlns="http://www.w3.org/2000/svg">
<path fill-rule="evenodd" clip-rule="evenodd" d="M20 40C8.9725 40 0 31.0275 0 20C0 8.9725 8.9725 0 20 0C31.0275 0 40 8.9725 40 20C40 31.0275 31.0275 40 20 40ZM2.5 20C2.5 29.65 10.35 37.5 20 37.5C24.3762 37.5 28.3712 35.875 31.4425 33.21L6.79 8.5575C4.125 11.6288 2.5 15.6238 2.5 20ZM20 2.5C15.6238 2.5 11.6288 4.125 8.5575 6.79L33.21 31.4425C35.875 28.3712 37.5 24.3762 37.5 20C37.5 10.35 29.65 2.5 20 2.5Z" fill="#106E83"/>
</svg>
