<svg width="30" height="30" viewBox="0 0 30 30" fill="none" xmlns="http://www.w3.org/2000/svg">
<path fill-rule="evenodd" clip-rule="evenodd" d="M30.0103 3.88216C29.9492 4.71346 29.5388 5.53255 28.8211 6.24925L15.681 19.396C15.5776 19.4993 15.4518 19.5763 15.3137 19.6223L9.68247 21.501C9.58478 21.5339 9.48522 21.5489 9.38565 21.5489C9.14049 21.5489 8.90002 21.4531 8.72155 21.2737C8.46981 21.0229 8.38245 20.65 8.49517 20.3127L10.3719 14.6787C10.418 14.5406 10.4959 14.4148 10.5992 14.3114L23.7394 1.16565C24.4589 0.445191 25.2855 0.0375264 26.1281 -0.0131969C26.7997 -0.0582842 27.817 0.117369 28.8653 1.16565C29.8995 2.19984 30.0591 3.21431 30.0103 3.88216ZM27.538 2.49385C27.0928 2.04861 26.656 1.84572 26.2408 1.86075C25.7646 1.88987 25.3391 2.22051 25.0667 2.49385L12.0824 15.4828L10.8698 19.1254L14.5106 17.9109L27.4939 4.92199C27.7691 4.64677 28.1035 4.21938 28.1373 3.7469C28.1674 3.34299 27.9654 2.92124 27.538 2.49385ZM16.8946 4.64677H1.87672V28.1222H25.3419V13.0978C25.3419 12.5793 25.7618 12.1585 26.2803 12.1585C26.7988 12.1585 27.2186 12.5793 27.2186 13.0978V29.0616C27.2186 29.5801 26.7988 30 26.2803 30H0.937404C0.419839 30 -0.000976562 29.5801 -0.000976562 29.0616V3.70745C-0.000976562 3.18894 0.419839 2.76813 0.937404 2.76813H16.8946C17.4131 2.76813 17.833 3.18894 17.833 3.70745C17.833 4.22595 17.4131 4.64677 16.8946 4.64677Z" fill="#106E83"/>
</svg>
