<svg width="6" height="16" viewBox="0 0 6 16" fill="none" xmlns="http://www.w3.org/2000/svg">
<path d="M2.38431 0C2.74684 0 3.06057 0.132462 3.32549 0.397385C3.59041 0.662309 3.72288 0.976035 3.72288 1.33856C3.72288 1.70109 3.59041 2.01482 3.32549 2.27974C3.06057 2.54466 2.74684 2.67712 2.38431 2.67712C2.02179 2.67712 1.70806 2.54466 1.44314 2.27974C1.17821 2.01482 1.04575 1.70109 1.04575 1.33856C1.04575 0.976035 1.17821 0.662309 1.44314 0.397385C1.70806 0.132462 2.02179 0 2.38431 0ZM3.4719 14.0549C3.4719 14.6266 3.59041 15.024 3.82745 15.2471C4.06449 15.4562 4.47582 15.5608 5.06144 15.5608V16C3.77865 15.9442 2.93508 15.9163 2.53072 15.9163C2.12636 15.9163 1.28279 15.9442 0 16V15.5608C0.585621 15.5608 0.99695 15.4562 1.23399 15.2471C1.47102 15.024 1.58954 14.6266 1.58954 14.0549V7.5085C1.58954 6.8671 1.47102 6.4 1.23399 6.10719C0.99695 5.81438 0.585621 5.66797 0 5.66797V5.22876C0.446187 5.27059 0.878432 5.2915 1.29673 5.2915C2.17516 5.2915 2.90022 5.1939 3.4719 4.99869V14.0549Z" fill="#106E83"/>
</svg>
