<svg width="41" height="33" viewBox="0 0 41 33" fill="none" xmlns="http://www.w3.org/2000/svg">
<path fill-rule="evenodd" clip-rule="evenodd" d="M36.2625 27.1563H4.37125L7.22875 29.9784C7.71625 30.4597 7.71625 31.2375 7.22875 31.7187C6.985 31.9587 6.66625 32.0793 6.3475 32.0793C6.02875 32.0793 5.71 31.9587 5.46625 31.7187L0.4825 26.7969C0.36625 26.6837 0.275 26.547 0.21125 26.3957C0.08625 26.0953 0.08625 25.7557 0.2125 25.4553C0.275 25.304 0.36625 25.1673 0.4825 25.0541L5.46625 20.1323C5.95375 19.651 6.7425 19.651 7.22875 20.1323C7.71625 20.6135 7.71625 21.3913 7.22875 21.8726L4.37125 24.6947H36.2625C36.9487 24.6947 37.5088 24.1433 37.5088 23.464V3.77165C37.5088 3.09227 36.9487 2.54088 36.2625 2.54088H3.855C3.1675 2.54088 2.5 3.09227 2.5 3.77165V13.3101C2.5 13.9907 2.05 14.5409 1.3625 14.5409C0.67375 14.5409 0 13.9907 0 13.3101V3.77165C0 1.73596 1.7925 0.0793457 3.855 0.0793457H36.2625C38.3237 0.0793457 40.0013 1.73596 40.0013 3.77165V23.464C40.0013 25.4997 38.3237 27.1563 36.2625 27.1563Z" fill="#106E83"/>
</svg>
