<svg width="44" height="40" viewBox="0 0 44 40" fill="none" xmlns="http://www.w3.org/2000/svg">
<g clip-path="url(#clip0)">
<path fill-rule="evenodd" clip-rule="evenodd" d="M38.9074 20.0044L43.5813 24.7077C44.1365 25.2661 44.1365 26.1695 43.5813 26.7265C43.3051 27.0056 42.942 27.146 42.5776 27.146C42.2146 27.146 41.8515 27.0056 41.5753 26.7265L36.9 22.0246L32.2261 26.7265C31.9485 27.0056 31.5854 27.146 31.2224 27.146C30.8593 27.146 30.4963 27.0056 30.2187 26.7265C29.6649 26.1695 29.6649 25.2661 30.2187 24.7077L34.8926 20.0044L30.2187 15.3012C29.6649 14.7442 29.6649 13.8408 30.2187 13.2824C30.7739 12.724 31.6723 12.724 32.2261 13.2824L36.9 17.9857L41.5753 13.2824C42.1291 12.724 43.0275 12.724 43.5813 13.2824C44.1365 13.8408 44.1365 14.7442 43.5813 15.3012L38.9074 20.0044ZM24.7062 39.8741C24.5197 39.9586 24.3218 39.9987 24.1254 39.9987C23.7837 39.9987 23.4477 39.8756 23.1815 39.6379L10.8098 28.5734H4.25234C1.90471 28.5734 -0.00585938 26.652 -0.00585938 24.2896V15.7207C-0.00585938 13.3583 1.90471 11.4355 4.25234 11.4355H10.8098L23.1815 0.370954C23.6015 -0.00273042 24.198 -0.0972254 24.7062 0.136149C25.2173 0.366659 25.5448 0.876359 25.5448 1.43903V38.5713C25.5448 39.1325 25.2173 39.6436 24.7062 39.8741ZM22.7786 4.20659L12.2932 13.931C11.9331 14.2531 11.4632 14.3319 11.0276 14.2288H4.27085C3.48783 14.2288 2.83294 14.9318 2.83294 15.7207V24.2896C2.83294 25.0771 3.47075 25.7171 4.25234 25.7171H11.3493C11.4163 25.7171 11.4746 25.7471 11.5387 25.7557C11.6455 25.7701 11.7508 25.7801 11.8533 25.8202C11.9501 25.8574 12.0299 25.9175 12.1139 25.9734C12.1737 26.012 12.2391 26.0306 12.2932 26.0779L22.7786 35.7049V4.20659Z" fill="#106E83"/>
</g>
<defs>
<clipPath id="clip0">
<rect width="44" height="39.6825" fill="white" transform="translate(0 0.317505)"/>
</clipPath>
</defs>
</svg>
