<svg width="40" height="40" viewBox="0 0 40 40" fill="none" xmlns="http://www.w3.org/2000/svg">
<path d="M0 20C0 8.95431 8.95431 0 20 0C31.0457 0 40 8.95431 40 20C40 31.0457 31.0457 40 20 40C8.95431 40 0 31.0457 0 20Z" fill="#106E83"/>
<path d="M13.2681 22.4994C10.6049 21.7591 8.60754 19.6118 8.60754 16.5021C8.60754 12.6519 11.7886 10.4307 15.1915 10.4307H31.3924V15.0954H21.9233V18.7234H29.247V23.2399H21.9233V29.6815H16.8929V14.9472H15.1174C14.3037 14.9472 13.342 15.4655 13.342 16.5021C13.342 17.3165 13.8599 17.8348 14.5256 18.131L13.2681 22.4994Z" fill="#E7F7FB"/>
</svg>
