<svg width="444" height="456" viewBox="0 0 444 456" fill="none" xmlns="http://www.w3.org/2000/svg">
<path d="M303.991 380.643C273.094 392.564 238.417 382.893 204.776 374.914C170.551 366.797 135.093 359.787 108.105 334.182C79.4404 306.986 57.898 269.92 52.7551 230.685C47.6842 192 61.2637 155.202 80.624 124.532C98.5318 96.1622 126.417 78.5851 156.593 66.1859C185.751 54.2049 217.218 47.6576 249.254 55.2415C281.654 62.9114 311.659 81.9397 335.164 108.459C358.772 135.094 373.463 168.367 380.453 203.264C387.716 239.523 389.118 277.164 375.352 309.099C361.208 341.909 335.894 368.333 303.991 380.643Z" fill="#E7F7FB"/>
</svg>
