<svg width="370" height="81" viewBox="0 0 370 81" fill="none" xmlns="http://www.w3.org/2000/svg">
<path d="M365.429 10.8567C358.307 -0.29197 341.656 3.65445 329.017 3.65445C326.71 3.55579 324.403 3.55579 321.995 3.45713C305.344 2.66785 76.035 0.793297 60.5873 2.17454C56.8758 2.47053 53.4653 2.96383 50.155 3.65445C23.2719 13.1259 28.3878 17.2624 31.1964 35.6132C31.9989 41.0396 29.7921 46.4659 25.3785 49.7217C20.1623 53.5695 12.8397 56.9239 2.40747 58.0092C2.40747 58.0092 14.1437 58.9958 25.3785 61.8569C28.789 62.7449 31.3971 65.3101 32.2999 68.5658C33.8045 74.1895 37.4157 73.8863 45.942 77.5367C48.6504 78.2274 51.5594 78.622 54.669 78.5233C57.8789 78.622 61.0888 78.622 64.1984 78.622C67.308 78.5233 70.4176 78.4247 73.4269 78.326C82.4548 77.5368 302.234 77.9314 311.362 78.326C313.669 78.4247 315.876 78.5233 318.183 78.622C333.23 78.2273 353.593 84.9363 361.919 70.8278C372.451 53.7596 365.73 43.478 368.238 24.4365C368.539 22.3647 368.74 20.2928 368.84 18.2209C369.442 12.0053 369.041 16.0857 365.429 10.8567Z" fill="#E7F7FB"/>
<path d="M341.656 80.7926C337.944 80.7926 334.032 80.4966 330.221 80.102C326.008 79.7073 321.995 79.4113 318.284 79.51C316.478 79.4113 314.672 79.3127 312.867 79.214L311.362 79.1154C301.632 78.6221 82.2542 78.3261 73.5272 79.1154C70.5179 79.214 67.4083 79.3127 64.1984 79.4113C60.6876 79.51 57.5779 79.4114 54.669 79.3127C51.5593 79.3127 48.55 79.0167 45.7414 78.2274H45.6411C37.8169 74.7743 33.3029 75.3735 31.4973 68.6646C30.6949 65.7047 28.0868 63.7315 25.0775 62.9423C13.9431 60.1798 0.10031 57.4173 0 57.4173L4.11271 56.924C13.0403 55.9374 18.8583 53.4708 24.8769 49.0311C29.0899 45.874 31.0961 40.8423 30.3939 35.712C30.1933 34.528 29.9927 33.3441 29.7921 32.1602C26.9834 14.6973 23.9741 11.942 49.8541 2.76655H49.9544C53.064 2.07593 56.5748 1.58263 60.4869 1.18799C72.2232 0.300041 296.516 1.08933 309.757 1.77995C313.87 1.97727 318.083 2.27325 322.095 2.47057C324.703 2.56923 326.91 2.66789 329.017 2.66789C331.525 2.66789 334.233 2.47057 337.142 2.37191C347.975 1.77995 363.323 5.72683 366.232 10.3634C369.141 15 370 14 369.843 18.221C369.686 22.4419 369.442 22.3647 369.141 24.5352C368.238 31.1455 368.539 38.0517 368.74 44.7606C369.241 57.3892 369.743 59.9752 362.721 71.3212C358.207 79.0167 350.383 80.7926 341.656 80.7926ZM319.688 77.7341C323.099 77.7341 326.609 78.0301 330.421 78.3261C342.659 79.3127 355.298 80.3979 361.216 70.3346C367.937 59.3833 367.536 57.6852 367.034 44.7606C366.733 37.9531 366.533 30.9482 367.436 24.2393C367.736 22.1674 367.575 21.5473 368.037 18.0236C368.5 14.5 366.232 13.6083 364.727 11.2514C363.223 8.89444 348.076 3.45718 337.242 4.04914C334.333 4.24646 331.625 4.34512 329.017 4.34512C326.91 4.34512 324.603 4.24646 321.995 4.1478C317.983 3.95048 313.77 3.75316 309.657 3.45718C296.516 2.86521 72.3235 2.07593 60.6876 3.06253C56.8758 3.35852 53.4652 3.85182 50.4559 4.54244C26.0806 13.1259 28.6887 14.4013 31.5977 31.8642C31.7983 33.0481 31.9989 34.232 32.1995 35.416C33.1023 41.1383 30.6949 46.8606 25.9803 50.4124C21.1654 53.9641 15.5481 56.4307 9.0279 57.8119C13.4415 58.4039 19.6608 59.3905 25.6794 60.969C29.3908 61.9556 32.2998 64.7181 33.2026 68.3686C34.8076 74.4855 39.0206 73.5904 46.2429 76.7475C48.851 77.4381 51.76 77.7341 54.669 77.7341C57.6783 77.8328 60.6876 77.8328 64.1984 77.8328C67.4083 77.7341 70.5179 77.6355 73.4269 77.5368C82.2542 76.7475 301.732 77.1421 311.463 77.5368L312.967 77.6355C314.773 77.7341 316.578 77.8328 318.284 77.9314C318.785 77.7341 319.186 77.7341 319.688 77.7341Z" fill="#0F2D37"/>
</svg>
