<svg width="534" height="91" viewBox="0 0 534 91" fill="none" xmlns="http://www.w3.org/2000/svg">
<path d="M532.247 18.9315C529.548 -2.98491 492.37 0.999894 447.997 5.58242C403.623 10.1649 66.6232 7.57482 32.6433 5.68204C-1.33648 3.78926 1.0621 32.181 1.0621 32.181C1.26497 49.4371 5.0111 53.6227 17.0001 55.5C21.9752 56.279 30.647 56.3972 38.5001 57.1233C39.6909 57.2334 240 57.5 240 57.5C240 57.5 256.929 65.7529 253.631 90.6579C253.631 90.6579 261.126 60.3734 288.21 56.7871C342.778 56.6875 474.581 58.5803 497.667 58.0822C530.348 57.4845 535.045 40.8479 532.247 18.9315Z" fill="#E7F7FB"/>
<path d="M254.599 90.9568L252.6 90.5583C255.598 68.1438 242.506 60.2738 240.407 59.178C223.917 61.3696 14.1226 59.9749 7.92629 54.5955C2.72937 50.1126 0.230855 42.8403 0.0309732 32.181C0.0309732 31.7825 -0.868493 20.5254 7.02682 12.3566C12.7234 6.57861 21.3183 3.98849 32.7116 4.68583C65.7919 6.57861 403.292 9.16873 447.965 4.58621L449.464 4.38697C492.938 -0.0959349 530.416 -3.98112 533.314 18.7323C535.113 33.0775 533.414 42.3422 527.718 48.8175C521.921 55.3924 512.127 58.7795 497.736 59.0784C486.142 59.2776 459.958 58.9787 429.676 58.5803C399.594 58.1818 315.562 57.6837 288.279 57.7833C262.294 61.27 254.599 90.6579 254.599 90.9568ZM241.107 57.1856C241.306 57.2852 254.898 63.8601 255.098 83.6845C259.096 74.3202 268.79 58.381 288.079 55.7909H288.179C315.462 55.7909 399.494 56.1894 429.676 56.5879C459.958 56.9863 486.142 57.3848 497.636 57.086C511.427 56.7871 520.822 53.6989 526.119 47.5224C531.316 41.4456 532.915 32.6791 531.216 19.0311C528.617 -1.68985 492.039 2.09571 449.564 6.37937L448.065 6.57861C403.292 11.1611 65.692 8.57101 32.5117 6.67823C21.818 6.08051 13.7228 8.47139 8.52593 13.7513C1.23026 21.2228 2.02979 31.9817 2.02979 32.181C2.12973 42.2426 4.5283 49.1164 9.22551 53.1012C15.0221 58.0822 224.317 59.2776 240.407 57.1856C240.686 57.1161 240.839 57.0522 241.107 57.1856Z" fill="#106E83"/>
</svg>
