<svg width="258" height="259" viewBox="0 0 258 259" fill="none" xmlns="http://www.w3.org/2000/svg">
<g clip-path="url(#clip0)">
<path d="M256.793 260.555C201.881 260.555 146.911 260.555 91.9991 260.555C91.6541 258.942 91.3667 257.329 90.9067 255.716C89.8142 251.857 89.4117 248.112 90.2742 244.022C91.9991 235.957 91.1942 227.777 89.8717 219.712C89.7567 219.078 89.7567 218.445 89.6417 217.177C92.1141 220.288 94.1266 222.823 96.1966 225.3C101.314 231.291 105.742 237.743 109.594 244.598C111.261 247.594 112.929 250.647 114.711 253.585C115.229 254.507 116.034 255.256 116.896 256.292C118.161 255.083 119.254 254.276 120.059 253.182C125.751 245.808 132.364 239.298 139.206 232.904C140.069 232.098 141.219 231.349 142.426 231.061C145.301 230.254 147.831 228.987 149.959 226.855C150.476 226.337 151.224 225.934 152.144 225.242C152.201 226.395 152.316 227.086 152.259 227.777C152.201 231.982 151.971 236.13 152.086 240.335C152.201 246.269 153.409 251.972 156.111 257.329C156.514 258.136 156.686 259.403 158.468 259.115C158.181 258.481 157.951 257.905 157.778 257.387C157.606 256.926 157.549 256.408 157.319 255.486C160.308 259 160.308 259 161.918 258.885C156.054 251.799 153.926 243.561 154.214 234.632C154.329 231.003 154.846 227.316 155.076 223.687C155.134 222.938 154.961 222.189 154.789 220.807C151.224 223.399 148.234 225.646 145.186 227.892C145.014 226.855 145.244 226.164 145.474 225.53C149.786 214.643 153.926 203.697 156.916 192.349C158.066 187.913 159.561 183.535 160.826 179.157C161.573 176.565 162.263 173.915 162.723 171.265C163.011 169.537 163.586 168.154 164.793 166.829C169.336 161.933 172.383 156.172 174.338 149.72C176.523 142.404 177.328 134.973 177.731 127.426C178.306 116.596 180.491 106.054 183.711 95.7424C186.298 87.4471 189.173 79.2669 191.933 71.0291C193.543 66.075 194.923 60.948 194.923 55.7057C194.923 51.9037 194.406 48.044 194.061 43.8964C194.636 44.8181 195.268 45.5094 195.613 46.3158C197.453 50.1755 199.523 53.9775 201.018 57.9524C204.238 66.7662 207.228 75.6953 210.16 84.6819C220.28 115.674 228.215 147.128 232.183 179.56C233.448 189.814 235.23 200.068 234.195 210.495C234.023 212.454 233.793 214.47 233.793 216.429C233.678 225.818 231.55 234.863 228.733 243.792C227.008 249.207 224.075 253.815 219.763 257.502C219.245 257.963 218.728 258.424 218.095 259.058C221.603 259.634 221.603 259.634 223.443 257.387C229.308 250.474 232.24 242.236 233.62 233.423C234.425 228.353 235 223.284 235.748 218.214C235.805 217.638 236.093 217.12 236.38 216.313C236.84 216.832 237.128 217.12 237.358 217.465C245.178 230.369 251.733 243.907 256.563 258.193C256.62 258.885 256.62 259.749 256.793 260.555ZM167.151 259.058C167.381 259.173 167.668 259.288 167.898 259.346C168.933 257.963 169.968 256.638 170.888 255.198C172.326 252.894 173.533 250.417 175.086 248.228C179.916 241.142 192.278 239.356 198.661 242.352C204.871 245.29 208.551 250.186 210.563 256.58C210.85 257.502 211.138 258.424 211.483 259.403C213.265 258.827 212.69 257.79 212.518 256.926C210.965 247.767 202.973 239.932 193.831 238.607C193.026 238.492 192.163 238.434 191.358 238.262C187.046 237.455 183.078 238.262 179.341 240.566C172.786 244.541 169.336 250.705 167.208 257.848C167.036 258.193 167.151 258.654 167.151 259.058ZM196.993 259.115C199.293 257.502 199.811 252.548 198.086 249.322C196.476 252.663 197.856 256.004 196.993 259.115ZM186.758 259.691C189.346 256.926 189.978 251.684 188.253 249.956C187.736 253.009 187.333 256.004 186.758 259.691ZM176.408 259.691C178.478 257.329 178.881 253.239 177.731 250.474C177.443 250.647 177.041 250.762 176.983 250.935C176.811 253.643 176.638 256.35 176.408 259.691Z" fill="white"/>
<path d="M81.9367 258.193L82.6842 259H91.4241L89.1241 250.935C89.1241 250.935 86.0192 256.062 85.0417 256.984C83.9492 257.848 81.9367 258.193 81.9367 258.193Z" fill="white"/>
<path d="M66.3544 259.058L37.9496 259.23C34.4997 258.942 30.9922 258.539 27.4847 257.963C29.2097 255.025 30.7047 252.26 32.5447 249.783C37.4896 243.101 45.0796 238.895 55.027 244.598C59.2244 247.018 62.7894 249.898 64.5719 254.564C64.9744 255.659 65.3194 256.753 65.6069 257.848C65.7794 258.482 66.0669 258.827 66.3544 259.058Z" fill="white"/>
<path d="M85.8467 246.499C84.9842 250.705 83.2592 254.161 79.9817 256.926C79.2343 257.56 78.6018 258.251 77.9118 258.885L68.3669 258.827C68.1369 257.848 68.0219 256.811 67.6769 255.889C63.5369 243.734 52.957 238.895 41.5146 240.22C33.0047 241.2 27.8298 246.787 25.2423 254.852C24.9548 255.832 24.7248 256.811 24.4373 257.733C17.6523 259.519 12.4774 257.329 8.68244 251.914C7.41745 250.129 6.49746 248.112 5.57747 246.154C1.38001 236.764 1.15001 226.855 1.84 216.832C2.75999 203.006 5.40497 189.469 8.96993 176.104C14.0299 157.151 21.2748 138.948 29.0947 121.089C35.4772 106.4 40.3646 91.422 43.1246 75.6377C45.2521 63.3099 49.967 51.9613 56.867 41.5345C57.442 40.6704 58.0745 39.8063 58.7069 38.9422C58.3619 41.5921 57.442 43.954 56.752 46.3159C52.8995 59.5078 52.7845 72.4693 58.5345 85.2004C59.7419 87.8503 60.8919 90.5579 62.0419 93.2654C65.7794 101.791 68.0794 110.605 68.9418 119.88C69.5168 126.332 70.1493 132.784 70.6668 139.236C70.7818 140.561 70.7243 141.943 70.4943 143.268C69.5743 150.238 68.9994 157.209 69.4593 164.237C70.0918 173.684 71.8743 182.902 76.1868 191.427C77.5093 194.02 78.7743 196.67 79.9817 199.377C86.5367 214.528 89.3541 230.081 85.8467 246.499Z" fill="white"/>
<path d="M52.957 259.346C53.1295 257.56 53.3595 255.947 53.3595 254.334C53.3595 252.721 53.1295 251.108 53.0145 249.149C55.3145 250.244 54.912 252.03 54.9695 253.527C55.0845 256.811 54.6245 258.194 52.957 259.346Z" fill="#0F2D37"/>
<path d="M34.4997 250.244C36.8572 252.26 36.5122 257.387 34.4997 259.173C34.4997 256.177 34.4997 253.182 34.4997 250.244Z" fill="#0F2D37"/>
<path d="M43.5271 259.115C43.6996 256.12 43.8146 253.124 43.9871 249.898C45.9421 251.972 45.8846 256.408 43.5271 259.115Z" fill="#0F2D37"/>
<path d="M167.151 259.058C167.151 258.654 167.036 258.251 167.151 257.848C169.278 250.762 172.728 244.541 179.283 240.566C183.021 238.319 186.988 237.513 191.301 238.262C192.106 238.434 192.968 238.492 193.773 238.607C202.973 239.932 210.908 247.709 212.46 256.926C212.575 257.79 213.208 258.77 211.425 259.403C211.138 258.424 210.85 257.502 210.505 256.581C208.493 250.186 204.813 245.29 198.603 242.352C192.163 239.356 179.858 241.142 175.028 248.228C173.476 250.474 172.326 252.894 170.831 255.198C169.911 256.638 168.818 257.963 167.841 259.346C167.668 259.23 167.381 259.115 167.151 259.058Z" fill="#0F2D37"/>
<path d="M196.993 259.115C197.856 256.004 196.476 252.663 198.086 249.322C199.811 252.49 199.351 257.445 196.993 259.115Z" fill="#0F2D37"/>
<path d="M186.758 259.691C187.333 256.004 187.793 253.009 188.253 249.956C189.978 251.684 189.346 256.984 186.758 259.691Z" fill="#0F2D37"/>
<path d="M176.408 259.691C176.638 256.35 176.811 253.643 176.983 250.935C176.983 250.762 177.443 250.647 177.731 250.474C178.938 253.239 178.478 257.272 176.408 259.691Z" fill="#0F2D37"/>
<path d="M125.636 163.258C127.074 162.509 128.281 161.933 129.489 161.357C133.686 159.398 137.309 156.518 140.471 153.176C142.541 150.987 143.864 148.453 143.979 145.342C144.266 137.738 138.804 134.742 133.686 134.339C130.639 134.109 127.821 134.915 125.349 136.528C123.911 137.45 122.761 137.392 121.266 136.816C119.426 136.125 117.529 135.491 115.574 135.203C110.399 134.454 105.742 137.392 103.959 142.346C103.269 144.247 103.672 146.033 104.477 147.819C106.201 151.679 109.076 154.444 112.584 156.748C115.171 158.476 117.759 160.262 120.576 162.163C118.104 165.447 116.551 168.961 112.641 170.862C105.856 174.088 99.0141 175.125 91.6541 172.993C87.2842 171.726 84.0642 168.961 81.4767 165.504C75.6118 157.67 72.2193 148.913 72.3343 139.005C72.5068 123.221 69.2869 108.07 63.8244 93.323C60.9494 85.6037 57.787 77.942 56.4645 69.7042C56.177 67.7456 56.0045 65.7293 56.177 63.7707C57.787 48.3321 63.2494 34.4489 74.4618 23.5036C83.7767 14.4017 94.9316 8.06496 107.639 4.72376C120.231 1.44018 132.996 0.576078 145.819 3.11078C157.778 5.47265 168.646 10.4268 177.558 19.1255C184.228 25.635 188.426 33.4695 189.518 42.6866C190.323 49.1962 190.668 55.821 190.783 62.3881C190.841 65.6717 190.093 69.0705 189.231 72.2389C187.678 77.6539 185.953 83.069 183.826 88.2536C178.191 102.022 174.971 116.308 173.361 131.055C172.556 138.141 171.003 145.054 168.818 151.851C166.288 159.686 161.746 166.138 155.306 171.438C147.371 177.947 139.379 176.622 132.134 171.265C129.489 169.364 127.476 166.656 125.636 163.258ZM144.381 87.3319C145.071 86.7558 145.761 86.1797 146.451 85.6613C152.661 80.7647 160.826 81.1679 166.288 86.871C167.898 88.5992 168.933 90.8459 170.198 92.8621C170.601 93.4958 171.003 94.0719 171.636 95.1664C172.096 89.5785 165.196 82.6081 159.963 81.3984C153.811 79.9582 146.451 82.3777 144.381 87.3319ZM108.961 84.7972C108.904 84.4515 108.961 84.1635 108.846 84.1059C103.557 80.7647 97.9791 78.8637 91.6541 80.4191C87.3417 81.5136 84.2942 84.2211 82.5117 88.2536C82.1092 89.1177 81.9942 90.097 81.7642 91.0763C81.9367 91.1339 82.1667 91.2491 82.3392 91.3067C82.6267 90.9611 83.0292 90.6155 83.1442 90.2122C84.9267 84.3363 90.5041 80.1886 98.4966 81.5712C101.027 81.9744 103.384 83.1842 105.856 84.0483C106.834 84.3939 107.696 85.3156 108.961 84.7972ZM176.178 74.8312C176.293 74.6584 176.466 74.4855 176.581 74.3127C174.856 72.8726 173.073 71.49 171.521 69.9346C169.911 68.3216 168.243 66.7086 166.921 64.8652C165.656 63.0218 164.621 60.8904 163.873 58.7589C163.126 56.7427 162.781 54.5536 162.321 52.4798C160.251 59.5078 167.668 70.8563 176.178 74.8312ZM94.7016 50.4635C93.1491 50.7516 93.0341 52.1341 92.5166 53.2287C89.2967 59.9687 85.1567 65.7869 78.3143 69.3586C78.0843 69.4738 77.9693 69.8194 77.5668 70.3955C79.9242 70.6259 81.3617 69.4162 82.7417 68.264C88.4917 63.5403 92.6891 57.722 94.7016 50.4635Z" fill="white"/>
<path d="M93.2641 176.046C96.3116 176.45 99.4165 177.141 102.464 177.083C105.511 177.026 108.559 176.161 112.066 175.585C112.756 176.334 113.734 177.544 114.826 178.581C119.139 182.613 123.451 182.325 127.189 177.832C127.936 176.968 128.626 176.046 129.431 175.009C135.526 177.083 141.564 179.445 148.406 177.544C144.784 184.457 129.949 192.579 120.231 192.061C109.766 191.6 97.5766 184.63 93.2641 176.046Z" fill="white"/>
<path d="M113.331 174.549C116.149 171.323 118.851 168.327 121.439 165.389C123.739 168.327 125.866 171.092 128.109 174.03C127.821 174.549 127.419 175.24 126.901 175.931C122.991 181.461 119.024 181.346 114.424 176.334C114.079 175.873 113.791 175.297 113.331 174.549Z" fill="white"/>
<path d="M213.955 90.6155C220.855 104.153 234.483 164.64 234.023 179.272C231.32 164.64 228.963 149.605 225.628 134.857C222.293 119.995 217.923 105.42 213.955 90.6155Z" fill="white"/>
<path d="M175.833 126.332C176.753 138.083 171.923 157.727 165.713 162.336C169.163 156.46 171.118 150.642 172.383 144.651C173.648 138.717 174.626 132.726 175.833 126.332Z" fill="white"/>
<path d="M192.566 59.5078C192.221 54.4384 191.876 49.4266 191.531 44.3572C193.543 49.369 193.888 54.4384 192.566 59.5078Z" fill="white"/>
<path d="M69.4019 26.4415C66.3544 31.4533 63.2494 36.4651 60.202 41.5345C62.3294 35.9466 64.0544 30.1284 69.4594 26.4991C69.5169 26.4991 69.4019 26.4415 69.4019 26.4415Z" fill="white"/>
<path d="M124.831 166.023C128.051 169.191 131.041 172.129 133.744 174.721C130.524 174.491 125.349 169.825 124.831 166.023Z" fill="white"/>
<path d="M69.5168 26.4991C70.8968 24.5981 71.9893 22.4666 73.6568 20.8537C75.8993 18.7222 78.6017 17.0516 81.0167 15.2082C81.3042 15.4386 81.4192 15.4962 81.4767 15.6114C81.4767 15.669 81.4192 15.8419 81.3617 15.8995C77.3943 19.4135 73.4268 22.9275 69.4593 26.3839C69.4018 26.4415 69.5168 26.4991 69.5168 26.4991Z" fill="white"/>
<path d="M88.2042 243.216C88.4917 238.262 88.8367 233.307 89.1242 228.411C89.3542 233.307 90.1592 238.262 88.8942 243.158C88.6642 243.158 88.4342 243.158 88.2042 243.216Z" fill="white"/>
<path d="M161.056 171.553C160.941 172.417 160.826 173.224 160.653 174.376C159.446 173.166 159.791 172.302 160.308 171.495C160.596 171.495 160.826 171.495 161.056 171.553Z" fill="white"/>
<path d="M144.381 87.3318C146.451 82.3201 153.811 79.9006 159.963 81.3407C165.196 82.5505 172.096 89.5209 171.636 95.1088C170.946 94.0142 170.601 93.4382 170.198 92.8045C168.933 90.7883 167.898 88.5416 166.288 86.8134C160.826 81.1103 152.661 80.6495 146.451 85.6036C145.704 86.2373 145.071 86.8134 144.381 87.3318Z" fill="#0F2D37"/>
<path d="M108.961 84.7972C107.754 85.3156 106.834 84.3363 105.856 83.9907C103.384 83.1266 101.027 81.9168 98.4966 81.5136C90.4466 80.131 84.9267 84.2787 83.1442 90.1546C83.0292 90.5578 82.6267 90.9035 82.3392 91.2491C82.1667 91.1915 81.9367 91.0763 81.7642 91.0187C81.9942 90.097 82.1092 89.0601 82.5117 88.196C84.2942 84.1635 87.3417 81.3984 91.6541 80.3614C97.9791 78.8061 103.557 80.7071 108.846 84.0483C108.904 84.1635 108.904 84.4515 108.961 84.7972Z" fill="#0F2D37"/>
<path d="M176.178 74.8312C167.668 70.9139 160.251 59.5078 162.321 52.4221C162.838 54.5536 163.126 56.6851 163.873 58.7013C164.678 60.8327 165.656 62.9642 166.921 64.8076C168.186 66.651 169.853 68.3216 171.521 69.877C173.131 71.4324 174.913 72.8149 176.581 74.2551C176.466 74.4855 176.351 74.6584 176.178 74.8312Z" fill="#0F2D37"/>
<path d="M94.7016 50.4635C92.6316 57.722 88.4917 63.5403 82.7417 68.2064C81.3617 69.3586 79.9242 70.5683 77.5668 70.3379C77.9693 69.7618 78.0843 69.4738 78.3143 69.3009C85.1567 65.7869 89.2967 59.911 92.5166 53.1711C93.0341 52.1917 93.1491 50.8092 94.7016 50.4635Z" fill="#0F2D37"/>
<path d="M69.3443 26.6143C69.4018 26.5567 69.4593 26.5567 69.5168 26.4991C69.4593 26.4991 69.4018 26.5567 69.3443 26.6143ZM69.6893 26.1535C69.8618 26.0383 69.9768 25.8654 70.1493 25.7502C70.0343 25.8654 69.8618 26.0383 69.6893 26.1535ZM257.598 258.136C256.448 254.795 255.355 251.396 253.975 248.112C249.26 237.052 244.143 226.164 237.703 216.025C236.898 214.758 236.15 213.203 236.15 211.705C235.978 203.121 236.265 194.538 235.978 186.012C235.748 179.215 235.403 172.417 234.425 165.677C231.493 145.169 226.433 125.064 220.625 105.19C215.623 88.0231 208.608 71.5476 201.938 54.9569C200.271 50.8092 197.798 47.0071 195.613 43.0899C193.486 39.2878 191.128 35.5434 189.058 31.6837C186.471 26.8448 183.193 22.5243 179.456 18.607C167.668 6.33676 152.834 1.09454 136.389 0.172832C127.649 -0.288022 118.794 0.230439 110.169 1.95864C91.5966 5.64547 75.4968 13.768 64.0544 29.6099C63.7669 30.0131 63.4219 30.4164 63.0769 30.8196C51.4045 44.4724 44.1021 60.1991 41.0546 77.942C38.9846 90.2698 35.4771 102.137 30.5897 113.658C25.9322 124.603 21.4473 135.664 17.0773 146.782C7.64742 170.862 1.20748 195.69 -7.85291e-06 221.671C-0.402504 230.485 0.459988 239.241 4.13995 247.479C6.15243 251.972 9.1424 255.716 13.3399 258.309C14.0299 258.712 14.8348 259.23 15.5823 259.288C19.4348 259.403 23.2298 259.346 26.6222 259.346L37.9496 259.23C36.9146 259.115 35.8221 259.058 34.7297 258.942C34.6722 258.942 34.5572 258.942 34.4997 258.942C32.1997 258.712 29.8422 258.366 27.5422 257.963C29.2672 255.025 30.7622 252.26 32.6022 249.783C37.5471 243.101 45.1371 238.895 55.0845 244.598C59.2819 247.018 62.8469 249.898 64.6294 254.564C65.0319 255.659 65.3769 256.753 65.6644 257.848C65.8369 258.424 66.0669 258.827 66.4118 259.058L53.302 259.115H53.072L37.9496 259.23C48.472 260.095 58.4769 259.749 66.4118 259.115C66.8143 259.346 67.2743 259.288 67.9068 259.058L82.6267 258.942C86.0192 257.905 86.3067 254.391 88.5491 251.799C89.2966 254.968 89.9866 257.733 90.6766 260.555H91.9416C91.5966 258.942 91.3091 257.329 90.8491 255.716C89.7566 251.857 89.3541 248.112 90.2166 244.022C91.9416 235.957 91.1366 227.777 89.8141 219.712C89.6991 219.079 89.6991 218.445 89.6416 217.12C92.1141 220.231 94.1266 222.765 96.1966 225.185C101.314 231.176 105.741 237.628 109.594 244.483C111.261 247.479 112.929 250.532 114.711 253.47C115.229 254.391 116.034 255.14 116.896 256.235C118.161 255.025 119.254 254.219 120.059 253.124C125.751 245.75 132.364 239.241 139.206 232.847C140.069 232.04 141.219 231.291 142.369 231.003C145.244 230.197 147.774 228.929 149.901 226.798C150.419 226.279 151.166 225.876 152.086 225.185C152.144 226.337 152.259 227.028 152.201 227.72C152.144 231.925 151.914 236.073 152.029 240.278C152.201 246.211 153.351 251.914 156.053 257.214C156.111 257.329 156.111 257.387 156.168 257.502C156.226 257.675 156.283 257.79 156.341 257.963C156.341 258.021 156.398 258.078 156.398 258.136C156.456 258.251 156.513 258.309 156.571 258.424C156.628 258.539 156.686 258.597 156.801 258.654C156.858 258.712 156.916 258.712 156.916 258.77C157.031 258.827 157.088 258.885 157.203 258.942C157.203 258.942 157.261 258.942 157.318 259C157.491 259.058 157.606 259.058 157.836 259.058C157.951 259.058 158.123 259.058 158.238 259H158.353C158.238 258.712 158.123 258.482 158.066 258.251C157.951 257.905 157.778 257.617 157.721 257.272C157.548 256.811 157.491 256.292 157.261 255.371C158.066 256.292 158.641 256.984 159.101 257.502C160.366 258.885 160.711 258.885 161.861 258.77C161.746 258.597 161.573 258.424 161.458 258.309C155.881 251.338 153.869 243.273 154.156 234.517C154.271 230.888 154.788 227.259 155.018 223.572C155.076 222.823 154.903 222.074 154.731 220.691C151.166 223.284 148.176 225.53 145.129 227.777C144.956 226.74 145.186 226.049 145.416 225.415C149.729 214.528 153.868 203.582 156.858 192.234C158.008 187.798 159.503 183.42 160.768 179.042C161.516 176.45 162.206 173.8 162.666 171.092C162.953 169.364 163.528 167.924 164.736 166.656C169.278 161.76 172.326 155.999 174.281 149.547C176.466 142.231 177.271 134.8 177.673 127.253C178.248 116.423 180.433 105.881 183.711 95.5696C186.298 87.2742 189.173 79.0941 191.933 70.8563C193.601 65.9021 194.923 60.7751 194.923 55.5329C194.923 51.6733 194.406 47.8712 194.061 43.7235C194.636 44.6452 195.268 45.3365 195.613 46.143C197.453 50.0027 199.523 53.8047 201.018 57.7796C204.238 66.5934 207.228 75.5225 210.16 84.5091C220.28 115.502 228.215 146.955 232.183 179.387C233.448 189.641 235.23 199.895 234.195 210.322C234.023 212.281 233.793 214.297 233.793 216.256C233.62 225.646 231.55 234.69 228.733 243.619C227.008 249.034 224.075 253.643 219.763 257.329C219.418 257.617 219.13 257.905 218.728 258.251C218.498 258.424 218.268 258.654 218.038 258.885C219.188 259.058 219.993 259.173 220.568 259.173C220.683 259.173 220.798 259.173 220.855 259.173C220.913 259.173 220.913 259.173 220.97 259.173C221.085 259.173 221.2 259.115 221.315 259.115C221.373 259.115 221.43 259.058 221.488 259.058C221.603 259 221.718 258.942 221.775 258.885C222.063 258.712 222.35 258.424 222.638 258.078C222.638 258.078 222.695 258.021 222.753 257.963C222.925 257.733 223.155 257.502 223.385 257.214C229.25 250.301 232.183 242.064 233.563 233.25C234.368 228.18 234.943 223.111 235.69 218.042C235.748 217.466 236.035 216.947 236.323 216.141C236.783 216.659 237.07 216.947 237.3 217.293C245.12 230.197 251.675 243.734 256.505 258.021C256.793 258.77 256.793 259.634 256.908 260.44H258.172C257.885 259.749 257.885 258.885 257.598 258.136ZM70.1493 25.4622C70.5518 24.8861 70.8968 24.2525 71.2993 23.6764C71.3568 23.6188 71.3568 23.5612 71.4143 23.5036C71.4718 23.446 71.4718 23.3884 71.5293 23.3307C71.5868 23.2155 71.7018 23.1003 71.7593 22.9851C71.8168 22.9275 71.8743 22.8123 71.9318 22.7547L71.9893 22.6971C72.0468 22.6395 72.1043 22.5243 72.1618 22.409C72.2193 22.2938 72.3343 22.1786 72.4493 22.0634C72.5643 21.9482 72.6793 21.7754 72.7368 21.6602C72.9093 21.4873 73.0818 21.2569 73.2543 21.0841C73.3693 20.9689 73.4843 20.8537 73.5993 20.7384C75.8418 18.607 78.5442 16.9364 80.9592 15.093C81.2467 15.381 81.3617 15.381 81.4192 15.4962C81.4192 15.5538 81.3617 15.7267 81.3042 15.7843C78.4292 18.319 75.5543 20.9113 72.6218 23.446C72.3343 23.734 71.9893 24.022 71.7018 24.2525C71.1843 24.7133 70.6668 25.1742 70.1493 25.635C69.9768 25.7502 69.8618 25.9231 69.6893 26.0383C69.8618 25.9231 70.0343 25.6926 70.1493 25.4622ZM69.4018 26.4991C69.4018 26.4991 69.4018 26.4415 69.4593 26.4415C69.5743 26.3839 69.6318 26.2687 69.7468 26.2111C69.6893 26.3263 69.6318 26.3839 69.5168 26.4991C69.4593 26.5567 69.4018 26.5567 69.3443 26.6143C69.3443 26.5567 69.3443 26.4991 69.4018 26.4991ZM61.8694 37.0988C62.0994 36.4651 62.3869 35.8314 62.6744 35.1977C63.1344 34.2184 63.5944 33.2391 64.1119 32.3174C64.1694 32.1446 64.2844 32.0294 64.3994 31.8565C64.3994 31.7989 64.4569 31.7989 64.4569 31.7413C64.6294 31.4533 64.8019 31.2229 64.9744 30.9348C65.0894 30.7044 65.2619 30.5316 65.4344 30.3012C65.5494 30.186 65.6069 30.0131 65.7219 29.8979C66.1819 29.3795 66.6418 28.8034 67.1018 28.3425C67.2168 28.2273 67.3318 28.1121 67.4468 27.9969C67.8493 27.5936 68.3093 27.248 68.8268 26.9024C68.9418 26.8448 69.0568 26.7295 69.1143 26.6719C69.1718 26.6143 69.2293 26.6143 69.2868 26.5567C69.2868 26.6143 69.2293 26.6143 69.2293 26.6719C69.2293 26.6719 69.1718 26.7295 69.1718 26.7872C68.7693 27.4784 68.3668 28.1121 67.9643 28.7458C67.6768 29.2066 67.4468 29.6099 67.1593 30.0707C64.8594 33.8728 62.5019 37.6748 60.2019 41.4769C60.7769 40.0367 61.2944 38.5389 61.8694 37.0988ZM83.8917 256.811C83.8917 256.811 83.2017 256.984 81.9367 257.157C83.1442 256.062 84.1217 254.795 85.5017 253.931C84.9842 254.91 84.4667 255.832 83.8917 256.811ZM85.8467 246.499C84.9842 250.705 83.2592 254.161 79.9817 256.926C79.8667 257.041 79.7517 257.157 79.6367 257.272C79.5217 257.387 79.4067 257.502 79.2917 257.617C76.8193 258.021 73.3693 258.482 69.3443 258.885C68.9418 258.942 68.5968 258.942 68.1943 259C68.2518 258.942 68.3668 258.942 68.4818 258.885C68.2518 257.905 68.1368 256.869 67.7918 255.947C63.6519 243.792 53.072 238.953 41.6296 240.278C33.1197 241.257 27.9447 246.845 25.3572 254.91C25.0697 255.889 24.8398 256.869 24.5523 257.79C17.7673 259.576 12.5924 257.387 8.79741 251.972C7.53242 250.186 6.61243 248.17 5.69244 246.211C1.37998 236.764 1.14998 226.855 1.83997 216.832C2.75997 203.006 5.40494 189.469 8.96991 176.104C14.0299 157.151 21.2748 138.948 29.0947 121.089C35.4771 106.4 40.3646 91.4219 43.1246 75.6377C45.2521 63.3098 49.967 51.9613 56.8669 41.5345C57.4419 40.6704 58.0744 39.8063 58.7069 38.9422C58.3619 41.5921 57.4419 43.954 56.7519 46.3158C52.8995 59.5078 52.7845 72.4693 58.5344 85.2004C59.7419 87.8503 60.8919 90.5578 62.0419 93.2653C65.7794 101.791 68.0793 110.605 68.9418 119.88C69.5168 126.332 70.1493 132.784 70.6668 139.236C70.7818 140.56 70.7243 141.943 70.4943 143.268C69.5743 150.238 68.9993 157.209 69.4593 164.237C70.0918 173.684 71.8743 182.901 76.1868 191.427C77.5092 194.02 78.7742 196.669 79.9817 199.377C86.5367 214.528 89.3541 230.081 85.8467 246.499ZM88.8941 243.101C88.6641 243.101 88.4341 243.158 88.1466 243.158C88.4341 238.204 88.7791 233.25 89.0666 228.353C89.3541 233.307 90.2166 238.262 88.8941 243.101ZM120.289 192.119C109.824 191.6 97.5766 184.63 93.3216 176.046C96.3691 176.45 99.474 177.141 102.522 177.083C105.569 177.026 108.616 176.161 112.124 175.585C112.814 176.334 113.791 177.544 114.884 178.581C119.196 182.613 123.509 182.325 127.246 177.832C127.994 176.968 128.684 176.046 129.489 175.067C135.584 177.141 141.564 179.503 148.464 177.602C144.841 184.514 130.006 192.637 120.289 192.119ZM128.166 174.03C127.879 174.548 127.476 175.24 127.016 175.931C123.106 181.461 119.081 181.346 114.539 176.334C114.136 175.873 113.849 175.297 113.389 174.606C116.264 171.38 118.909 168.385 121.496 165.447C123.739 168.327 125.866 171.092 128.166 174.03ZM124.831 166.023C128.051 169.191 131.041 172.071 133.744 174.721C130.524 174.491 125.349 169.825 124.831 166.023ZM160.711 174.376C159.503 173.166 159.848 172.359 160.308 171.495C160.538 171.495 160.826 171.553 161.056 171.553C160.941 172.359 160.883 173.224 160.711 174.376ZM165.713 162.336C169.163 156.46 171.118 150.642 172.383 144.651C173.648 138.717 174.626 132.668 175.833 126.332C176.696 138.141 171.923 157.727 165.713 162.336ZM189.288 72.2965C187.736 77.7115 186.011 83.1266 183.883 88.3112C178.248 102.079 175.028 116.366 173.361 131.113C172.556 138.199 171.003 145.111 168.818 151.909C166.288 159.744 161.746 166.196 155.306 171.495C147.371 178.005 139.379 176.68 132.134 171.323C129.431 169.306 127.419 166.599 125.579 163.258C127.016 162.509 128.224 161.933 129.431 161.357C133.629 159.398 137.251 156.518 140.414 153.176C142.484 150.987 143.806 148.453 143.921 145.342C144.209 137.738 138.746 134.742 133.629 134.339C130.581 134.109 127.764 134.915 125.291 136.528C123.854 137.45 122.704 137.392 121.266 136.816C119.426 136.125 117.529 135.491 115.574 135.203C110.399 134.454 105.741 137.392 103.959 142.346C103.269 144.247 103.671 146.033 104.476 147.819C106.201 151.679 109.076 154.444 112.584 156.748C115.171 158.476 117.759 160.262 120.576 162.163C118.104 165.447 116.551 169.018 112.641 170.862C105.856 174.088 99.014 175.125 91.6541 172.993C87.2841 171.726 84.0642 168.961 81.4767 165.504C75.6118 157.67 72.2193 148.856 72.3343 139.005C72.5068 123.221 69.2868 108.07 63.8244 93.323C60.9494 85.6036 57.7869 77.942 56.4644 69.7042C56.1769 67.7456 56.0044 65.7293 56.1769 63.7707C57.7869 48.3321 63.2494 34.4489 74.4618 23.5036C83.7767 14.4017 94.9316 8.06496 107.639 4.72377C120.231 1.44018 132.996 0.57608 145.819 3.11078C157.778 5.47265 168.646 10.4268 177.558 19.1255C184.228 25.635 188.426 33.4695 189.518 42.6866C190.323 49.1962 190.668 55.821 190.726 62.3881C190.898 65.6717 190.208 69.0705 189.288 72.2965ZM192.566 59.5078C192.221 54.4384 191.876 49.4266 191.531 44.3572C193.543 49.369 193.888 54.4384 192.566 59.5078ZM234.023 179.272C231.32 164.64 228.963 149.605 225.628 134.857C222.293 119.995 217.923 105.363 213.955 90.6154C220.855 104.211 234.483 164.698 234.023 179.272Z" fill="#0F2D37"/>
<path d="M85.5017 253.931C84.9842 254.852 84.4092 255.832 83.8917 256.753C83.8917 256.753 83.2017 256.926 81.9367 257.099C83.1442 256.062 84.1217 254.795 85.5017 253.931Z" fill="white"/>
<path d="M157.318 259.115C157.318 259.115 218.268 261.189 220.798 259.23C223.328 257.272 220.108 258.251 220.108 258.251C220.108 258.251 160.998 259.864 160.423 258.021C159.848 256.177 157.318 259.115 157.318 259.115Z" fill="#0F2D37"/>
</g>
<defs>
<clipPath id="clip0">
<rect width="258" height="259" fill="white"/>
</clipPath>
</defs>
</svg>
