<svg width="28" height="40" viewBox="0 0 28 40" fill="none" xmlns="http://www.w3.org/2000/svg">
<g clip-path="url(#clip0)">
<path fill-rule="evenodd" clip-rule="evenodd" d="M25.7727 40H17.1818C16.5044 40 15.9545 39.4412 15.9545 38.75V1.25C15.9545 0.55875 16.5044 0 17.1818 0H25.7727C26.4502 0 27 0.55875 27 1.25V38.75C27 39.4412 26.4502 40 25.7727 40ZM24.5455 2.5H18.4091V37.5H24.5455V2.5ZM9.81818 40H1.22727C0.549818 40 0 39.4412 0 38.75V1.25C0 0.55875 0.549818 0 1.22727 0H9.81818C10.4956 0 11.0455 0.55875 11.0455 1.25V38.75C11.0455 39.4412 10.4956 40 9.81818 40ZM8.59091 2.5H2.45455V37.5H8.59091V2.5Z" fill="#106E83"/>
</g>
<defs>
<clipPath id="clip0">
<rect width="28" height="39.6825" fill="white" transform="translate(0 0.317505)"/>
</clipPath>
</defs>
</svg>
