<svg width="44" height="41" viewBox="0 0 44 41" fill="none" xmlns="http://www.w3.org/2000/svg">
<g clip-path="url(#clip0)">
<path fill-rule="evenodd" clip-rule="evenodd" d="M33.0653 34.9917C32.9234 35.0361 32.78 35.0576 32.6395 35.0576C32.0348 35.0576 31.477 34.6667 31.2854 34.0568C31.0498 33.3052 31.4657 32.5034 32.2137 32.2657C37.5661 30.5734 41.1613 25.6439 41.1613 20.0028C41.1613 14.3432 37.5519 9.41082 32.181 7.72709C31.433 7.49085 31.0157 6.69051 31.2485 5.93741C31.4827 5.18575 32.2747 4.77197 33.027 4.99819C39.5901 7.05703 44 13.0861 44 20.0028C44 26.8981 39.6057 32.9214 33.0653 34.9917ZM36.9032 20.0028C36.9032 23.9401 33.7196 27.1429 29.8064 27.1429C29.0215 27.1429 28.3871 26.5044 28.3871 25.7155C28.3871 24.9266 29.0215 24.2866 29.8064 24.2866C32.1541 24.2866 34.0645 22.3652 34.0645 20.0028C34.0645 17.6405 32.1541 15.7176 29.8064 15.7176C29.0215 15.7176 28.3871 15.0791 28.3871 14.2902C28.3871 13.5013 29.0215 12.8627 29.8064 12.8627C33.7196 12.8627 36.9032 16.0656 36.9032 20.0028ZM24.7095 39.8711C24.5236 39.957 24.3263 39.9971 24.129 39.9971C23.7884 39.9971 23.4506 39.8726 23.1866 39.6363L10.8155 28.5718H4.25806C1.91045 28.5718 0 26.6504 0 24.2866V15.7176C0 13.3553 1.91045 11.4339 4.25806 11.4339H10.8155L23.1866 0.369367C23.6039 -0.00431733 24.2028 -0.0988123 24.7095 0.134562C25.2205 0.36364 25.5484 0.874772 25.5484 1.43601V38.5682C25.5484 39.1309 25.2205 39.642 24.7095 39.8711ZM22.7097 4.61734L12.2987 13.9294C11.941 14.2501 11.4726 14.3288 11.0397 14.2286H4.25806C3.476 14.2286 2.83871 14.9302 2.83871 15.7176V24.2866C2.83871 25.0755 3.476 25.7155 4.25806 25.7155H11.3548C11.4215 25.7155 11.4797 25.7441 11.5436 25.7542C11.6501 25.7685 11.7551 25.7785 11.8587 25.8171C11.9552 25.8544 12.0347 25.9145 12.1199 25.9718C12.1781 26.0104 12.2448 26.029 12.2987 26.0763L22.7097 35.3883V4.61734Z" fill="#106E83"/>
</g>
<defs>
<clipPath id="clip0">
<rect width="44" height="39.6825" fill="white" transform="translate(0 0.952393)"/>
</clipPath>
</defs>
</svg>
