<svg width="415" height="91" viewBox="0 0 415 91" fill="none" xmlns="http://www.w3.org/2000/svg">
<path d="M2.75323 18.0512C5.45154 -3.86719 42.6281 0.11797 87.0001 4.7009C131.372 9.28383 348.359 6.69348 382.338 4.80053C416.316 2.90758 413.918 31.3018 413.918 31.3018C413.715 48.5595 409.969 52.7455 397.98 54.6229C393.005 55.402 384.334 55.5202 376.481 56.2464C375.29 56.3565 234.989 56.6231 234.989 56.6231C234.989 56.6231 218.061 64.8768 221.359 89.784C221.359 89.784 213.863 59.4968 186.78 55.9102C132.215 55.8105 60.4169 57.7035 37.3315 57.2053C4.65213 56.6076 -0.0449829 39.9695 2.75323 18.0512Z" fill="#E7F7FB"/>
<path d="M220.36 90.083L222.359 89.6844C219.36 67.2679 232.452 59.3973 234.551 58.3013C251.04 60.4932 400.827 59.0984 407.023 53.7184C412.219 49.2351 414.718 41.9622 414.918 31.3019C414.918 30.9034 415.817 19.6453 407.922 11.4757C402.226 5.69727 393.631 3.10692 382.238 3.80432C349.159 5.69727 131.673 8.28762 87.0007 3.70469L85.5017 3.50543C42.0291 -0.977866 4.55283 -4.86339 1.65466 17.852C-0.144196 32.1986 1.55469 41.4641 7.2511 47.9399C13.0474 54.5154 22.8412 57.9028 37.2321 58.2017C48.8248 58.401 75.0083 58.1021 105.289 57.7036C135.37 57.305 159.398 56.8069 186.681 56.9065C212.665 60.3935 220.36 89.7841 220.36 90.083ZM233.851 56.3088C233.651 56.4084 220.06 62.9839 219.86 82.8101C215.863 73.4449 206.169 57.5043 186.881 54.914H186.781C159.498 54.914 135.47 55.3125 105.289 55.711C75.0083 56.1095 48.8249 56.508 37.3321 56.2091C23.5408 55.9102 14.1467 52.8217 8.85004 46.6448C3.65332 40.5674 2.05438 31.8 3.7533 18.1509C6.35165 -2.57192 42.9286 1.21397 85.4017 5.49801L86.9008 5.69727C131.672 10.2802 349.259 7.68985 382.438 5.7969C393.132 5.19913 401.226 7.59022 406.423 12.8706C413.719 20.3427 412.919 31.1026 412.919 31.3019C412.819 41.3644 410.421 48.2388 405.724 52.224C399.927 57.2054 250.641 58.401 234.551 56.3088C234.272 56.2392 234.119 56.1754 233.851 56.3088Z" fill="#106E83"/>
</svg>
