<svg width="571" height="620" fill="none" xmlns="http://www.w3.org/2000/svg"><path d="M44.164 198.93l.43.255.003-.005-.433-.25zm-10.21 17.226l-.497-.064-.309 2.402 1.235-2.083-.43-.255zm5.569-45.624h-.5.5zm81.222 41.901v.5h.808l-.36-.723-.448.223zm-5.105 0h-.5v.5h.5v-.5zm0-10.244l.443-.231-.943-1.806v2.037h.5zm-12.067-58.66v.5h.67l-.191-.643-.479.143zm-6.498 0h-.5v.5h.5v-.5zm19.957 4.191l-.21.453.434-.9-.224.447zm-6.033-2.794l.186-.464-.396.918.21-.454zM39.523 169.6h.5v-.038l-.006-.038-.494.076zm80.294 61.919l-.5-.024v.005l.5.019zm8.354-22.346l.47-.171-.004-.011-.466.182zm6.034 33.054l.495-.069-.001-.005-.494.074zm-13.46-30.261l-.443.231.205.393.414-.156-.176-.468zm-5.105 0l.237.44.263-.142v-.298h-.5zm-12.068 6.518l.225.447.006-.004.007-.003-.238-.44zm-2.784 1.396l-.38.325.254.298.35-.176-.224-.447zm-8.355-9.776l.38-.325-.001-.002-.379.327zM86.4 203.12l.378-.327-.008-.009-.37.336zm-14.388-15.829l-.374-.331-.298.336.302.332.37-.337zm7.426-8.38l.374.332.416-.469-.55-.301-.24.438zm0-10.707l.42.271.065-.101.012-.119-.497-.051zm19.029-12.57l-.026.499.037.002.037-.004-.048-.497zm24.599 14.432l-.477.149.066.212.201.093.21-.454zm0 12.57l-.426-.263-.119.193.067.216.478-.146zm3.713 12.104l.4.3.152-.204-.074-.242-.478.146zm-2.785 3.725l-.4-.3-.167.223.101.259.466-.182zm-11.603 27.002l.417.276.004-.006-.421-.27zm-43.164 65.178l-.417-.276-.026.04-.019.044.462.192zm-27.384 39.107l-.485.121.095.379h.39v-.5zm-3.249-13.036l-.455-.207-.072.159.042.169.485-.121zm68.691-94.973l-.372-.334-.001.001.373.333zm8.355-9.311v-.5h-.127l-.111.06.238.44zm-18.565-90.784l.479-.143-.98-3.297v3.44h.5zm26.455 48.883l-.473.162.463 1.356.481-1.35-.471-.168zm-24.599-14.432l-.026.499.037.002.038-.004-.049-.497zm-19.03 12.57l-.447.223.769 1.541.176-1.713-.497-.051zm-1.856-3.725l.448-.223-.448.223zm-1.856-3.724h-.5v.118l.052.105.448-.223zm2.785-8.846l-.417-.276-.006.009-.006.011.429.256zm3.249-3.724l.278.416.04-.028.036-.035-.354-.353zm5.57-3.259l-.16-.474-.013.004-.014.006.186.464zm16.244-1.862l.082-.493-.041-.007h-.041v.5zm7.426 1.396l.21-.453-.043-.02-.046-.012-.121.485zm6.033 2.794l.278-.416-.032-.022-.036-.016-.21.454zm3.713 3.259l-.416.276.027.042.035.035.354-.353zm3.249 4.655l-.474.158.003.009.003.008.468-.175zm23.671-10.707l.203.457-.311-.945.108.488zm-24.135 10.709l-.416.277.233.351.386-.171-.203-.457zm-3.249-4.656l-.108-.489-.888.197.642.645.354-.353zm9.283-20.486l.403.296 2.155-2.933-2.866 2.243.308.394zm-12.996 17.691l-.224.447.377.19.25-.341-.403-.296zm-6.033-2.793l-.309-.394-.683.535.805.323.187-.464zm43.164 14.433l.073.494-.057-.994-.016.5zm-28.312-.931l.016-.5-.516-.017v.517h.5zm-38.523-13.502l.186.464.912-.366-.832-.522-.266.424zm-5.57 3.259l-.358.348.29.299.347-.231-.278-.416zM65.05 131.425l.266-.424-3.504-2.197 2.879 2.969.359-.348zm-1.857 33.52l-.38.325.012.015.014.013.354-.353zm12.996-3.259l.434-.248-.144-.252h-.29v.5zm134.133 109.406l.429.256.241-.402-.386-.266-.284.412zm-9.747 16.294v.5h.284l.145-.243-.429-.257zm-10.21-5.121l-.083-.493-.191.032-.12.152.394.309zm-12.068 15.363l-.393-.308-.315.401.408.307.3-.4zm5.57 4.19l.488-.108-.04-.18-.148-.111-.3.399zm.928 4.19l.38.325.162-.189-.054-.244-.488.108zm-5.569 6.518l-.381-.325-.299.351.325.327.355-.353zm-11.604 27.003l-.411-.285-.002.003.413.282zm-6.033 8.845l-.498.051.141 1.36.77-1.129-.413-.282zm-1.393-13.501l.498-.051-.001-.005-.497.056zm-5.105-45.159v-.5h-.56l.063.556.497-.056zm1.856 0l.122.485.189-.047.107-.164-.418-.274zm25.063-38.176l.284-.411-.421-.291-.281.428.418.274zm-4.641 97.767l.044.498.378-.033.069-.374-.491-.091zm-9.747-9.311l-.411-.285-.002.003.413.282zm15.78-22.813l.412.285.088-.128v-.156l-.5-.001zm7.427-1.862l.092.492.19-.036.116-.154-.398-.302zm-29.238 35.385v.5h.5v-.5h-.5zm-1.395 0l-.4-.299-.598.799h.998v-.5zm1.395-1.865h.5v-1.503l-.901 1.204.401.299zm8.352-79.144l.419.272.081-.124v-.148h-.5zm-19.029-14.898l-.497.057v.001l.497-.058zm-2.785-24.209l.486-.117-.024-.099-.06-.082-.402.298zm6.034 25.14l-.487.117.038.157.123.106.326-.38zm15.78 13.501h.5v-.23l-.175-.15-.325.38zm0 158.755v.5h.554l-.057-.551-.497.051zm-32.489-211.828l.402-.297-.107-.144-.173-.044-.122.485zm22.278 119.182l-.497.052.001.008.001.009.495-.069zm.464 15.364l-.4-.3-.598.8h.998v-.5zm6.498 45.624l.497-.051v-.004l-.497.055zm-54.767 38.641l-.5-.023v.001l.5.022zm-.929 20.485l-.499-.023-.017.385.367.115.149-.477zm7.427 2.328l.291.406.813-.584-.955-.299-.149.477zm-71.476 50.745h-.5v.897l.762-.471-.262-.426zm0-143.391l-.493-.084-.007.042v.042h.5zm117.888 62.851h.5l-.998-.038.498.038zm0 54.47l.408.29.092-.131v-.159h-.5zm-4.641 6.517l-.498-.038-.137 1.792 1.042-1.464-.407-.29zM33.953 31.795l.013-.5h-.013v.5zm-8.354 0l-.337.37.143.13h.194v-.5zm2.785-15.828l-.224-.447.224.447zM44.628 2l.484-.126-.364-1.398L44.17 1.8l.458.2zm-5.105 29.796h.5v-.5h-.5v.5zm-12.996 0v-.5h-.5v.5h.5zm0 9.31h-.5v.5h.5v-.5zm12.996 0v.5h.5v-.5h-.5zm12.067 0h.5v-.5h-.5v.5zm-37.13 0v-.5h-.5v.5h.5zm0 10.709h-.5v.5h.5v-.5zm37.13 0v.5h.5v-.5h-.5zm-2.785-.466h.5v-.5h-.5v.5zm-32.025 0v-.5h-.5v.5h.5zm0 3.725h-.5v.5h.5v-.5zm32.025 0v.5h.5v-.5h-.5zm-6.498 5.12h.5v-.5h-.5v.5zm-19.029 0v-.5h-.5v.5h.5zm0 4.191h-.5v.5h.5v-.5zm19.03 0v.5h.5v-.5h-.5zm-6.962 5.12h.5v-.534l-.534.036.034.499zm0 25.606l-.187.464.687.276v-.74h-.5zm-6.962-2.793l.186-.464-.01-.004-.176.468zm-3.713-1.397l-.494.08.047.286.27.102.177-.468zm-3.25-20.019l-.066-.495-.51.068.083.508.494-.08zm17.173-6.517h.5v-.5h-.5v.5zm0 38.175v.5h.5v-.5h-.5zm-10.21 0h-.5v.5h.5v-.5zm0-38.175v-.5h-.5v.5h.5zM59.48 171.928l.439.241.075-.138-.017-.156-.497.053zm-5.105 9.312l.433.25.005-.01-.438-.24zm-14.388-10.708h-.5v.036l.005.036.495-.072zm0-.931h.5v-.039l-.006-.038-.494.077zm-4.177-27.003l-.497.054v.012l.003.011.494-.077zm-2.785-25.605l.497-.054-.003-.029-.006-.027-.488.11zm-3.249-14.433v-.5h-.625l.137.61.488-.11zm8.818-34.916l.433-.25-.933-1.612v1.862h.5zm8.355 14.432h.5v-.134l-.067-.117-.433.25zm0 20.484h-.5v.057l.012.055.488-.112zm6.962 28.399l-.478.147.004.014.005.014.469-.175zm3.249 21.416h.5v-.017l-.002-.016-.498.033zm.464 1.862l.493-.082-.026-.158-.113-.113-.354.353zm.464 4.656h-.5v.026l.003.027.497-.053zM29.312 102.56l.484-.125-.979.199.495-.074zm18.565 159.686l.46-.194-.024-.059-.04-.051-.396.304zm-4.641-6.052l-.46-.197-.115.269.178.232.397-.304zm2.784-6.518l.46.196.12-.281-.195-.235-.385.32zm-4.641-5.587l-.495-.073-.032.221.142.172.385-.32zm1.857-12.57l.494.073.059-.396-.374-.144-.18.467zm-15.78-6.052h-.5v.344l.32.123.18-.467zm0-30.261l-.46-.196-.04.094v.102h.5zm11.138-26.071v-.5h-.33l-.13.303.46.197zm19.03-10.242l.354-.353-1.061-1.064.212 1.487.495-.07zm7.426 7.914h.5v-.207l-.146-.146-.354.353zm0 3.725h-.5v.192l.13.143.37-.335zm4.64 5.121l.493.089.044-.243-.166-.182-.37.336zm-.927 5.121l-.492-.089-.031.17.081.153.442-.234zm3.713 6.983l-.442.235.031.058.046.049.365-.342zm14.388 15.363l.388-.314-.011-.014-.012-.013-.365.341zm6.033 7.449l.39-.314h-.001l-.389.314zm7.891 9.777l-.39.314.254.314.36-.181-.224-.447zm2.784-1.397l.225.447.006-.003.007-.004-.238-.44zm-66.37-60.057l-.497.057.002.016.003.017.492-.09zm140.167 385.481h.5v-.5h-.5v.5zm-151.306 0v-.5h-.5v.5h.5zm158.268 27.933v.5h.848l-.411-.742-.437.242zm-168.015 0l-.395-.306-.625.806h1.02v-.5zm165.23.001h.5v-.5h-.5v.5zm0 33.985v.5h.5v-.5h-.5zm-79.83 0h-.5v.5h.5v-.5zm0-14.432h.5v-.5h-.5v.5zm-15.316 0v-.5h-.5v.5h.5zm-64.05 14.432h-.5v.5h.5v-.5zm0-33.985v-.5h-.5v.5h.5zm183.795 33.984h.5v-.5h-.5v.5zM1 606.291v-.5H.5v.5H1zm0 13.036H.5v.5H1v-.5zm205.145 0v.5h.5v-.5h-.5zM101.252 591.86h.5v-.5h-.5v.5zm0 14.433v.5h.5v-.5h-.5zm24.599-146.185l.264.424.236-.146v-.278h-.5zm-32.954 20.484l.26.428.005-.003-.265-.425zm7.427-66.574l.499.029.001-.018-.5-.011zm69.619 130.356v.5h1.099l-.722-.829-.377.329zm-134.598 0l-.395-.306-.623.806h1.019v-.5zm17.637-22.813l.396.306.104-.135v-.171h-.5zM160.196 533.2h-.5v.188l.123.141.377-.329zM288.069 99.403v.5h.5v-.5h-.5zm-166.158 0l-.475.158.114.342h.361v-.5zm36.202-35.382l-.198.46.564.242.123-.601-.489-.1zm67.299-4.19l-.473.163.194.565.522-.291-.243-.437zm39.451 14.898l-.466.182.173.443.451-.15-.158-.475zm304.673 309.669v.5h.5v-.5h-.5zm-166.159 0l-.474.158.113.342h.361v-.5zm36.202-35.382l-.197.459.564.243.123-.601-.49-.101zm67.299-4.19l-.473.163.195.565.522-.291-.244-.437zm39.451 14.898l-.466.182.173.443.452-.151-.159-.474zm-31.558-141.536v.5h.5v-.5h-.5zm-166.158 0l-.475.158.114.342h.361v-.5zm36.202-35.382l-.197.459.563.242.124-.601-.49-.1zm67.299-4.191l-.473.163.194.565.522-.291-.243-.437zm39.451 14.898l-.466.182.173.443.451-.15-.158-.475zm-447.831 5.162l-10.211 17.226.86.51 10.211-17.226-.86-.51zm-9.285 17.545l5.57-43.297-.992-.128-5.57 43.297.992.128zm4.581-43.273l4.642 26.071.984-.175-4.641-26.071-.985.175zm0-2.335l4.64 28.399.987-.161-4.641-28.399-.987.161zm81.715 41.321h-5.105v1h5.105v-1zm-4.605.5v-10.244h-1v10.244h1zm-.948-10.021l5.106 10.244.895-.446-5.106-10.244-.895.446zm-11.619-59.383h-6.498v1h6.498v-1zm-6.498 1H101.252v-1H97.075v1zm4.177 0H103.573v-1H101.252v1zm15.99 3.237l-6.033-2.794-.42.908 6.033 2.793.42-.907zm-6.43-1.876c2.299.922 4.139 1.845 5.996 2.776l.448-.893c-1.856-.931-3.729-1.871-6.071-2.811l-.373.928zm-70.793 27.407l-.464-3.724-.993.124.465 3.724.992-.124zm-1.315-3.309l.465.465.708-.706-.464-.465-.709.706zm.319.112v.932h1v-.932h-1zm87.29 277.282l-12.995-31.658-.926.38 12.996 31.658.925-.38zm-12.958-31.449l6.962-183.895-1-.038-6.962 183.895 1 .038zm6.961-183.889l.929-19.088-.999-.049-.929 19.088.999.049zm.63-18.655l7.426-3.258-.402-.916-7.426 3.259.402.915zm6.755-3.546l1.857 5.121.94-.341-1.857-5.121-.94.341zm1.832 5.025l4.177 27.933.989-.148-4.177-27.933-.989.148zm4.177 27.928l25.991 185.758.99-.139L134.7 242.158l-.99.138zm26.243 185.251l-34.345 19.088.485.874 34.346-19.088-.486-.874zm-31.958-218.842l-7.426 2.793.352.936 7.426-2.793-.352-.936zm-6.807 3.03l-5.105-9.777-.886.463 5.105 9.776.886-.462zm-6.048-9.546v9.777h1v-9.777h-1zm.262 9.337l-12.067 6.518.475.88 12.067-6.518-.475-.88zm-12.054 6.511l-2.785 1.397.449.893 2.785-1.396-.449-.894zm-2.18 1.519l-8.355-9.777-.76.65 8.355 9.776.76-.649zm-8.356-9.779l-6.034-6.983-.757.653 6.034 6.984.757-.654zm-6.042-6.993l-14.388-15.829-.74.673 14.388 15.829.74-.673zm-14.384-15.161l7.426-8.38-.748-.663-7.426 8.38.748.663zm7.292-9.15c-1.14-.624-1.694-1.514-1.905-2.516-.216-1.025-.076-2.189.233-3.315.307-1.12.77-2.164 1.16-2.932a17.693 17.693 0 01.641-1.154l.04-.063a.513.513 0 01.01-.018h.001v-.001l-.42-.27-.42-.271-.002.002-.003.005-.013.02-.044.071a18.661 18.661 0 00-.682 1.227c-.408.803-.902 1.912-1.233 3.12-.33 1.202-.509 2.541-.246 3.785.267 1.267.99 2.414 2.403 3.187l.48-.877zm.257-10.218c.668-6.471 5.204-9.499 9.69-10.923 2.244-.712 4.45-1.012 6.101-1.134a27.86 27.86 0 011.981-.078c.238-.001.423.003.548.006l.141.005.035.001a.029.029 0 00.008.001h.002l.026-.499.026-.5h-.004l-.011-.001-.041-.001a17.01 17.01 0 00-.731-.012c-.496.001-1.202.018-2.053.08-1.7.126-3.99.436-6.33 1.179-4.68 1.486-9.658 4.743-10.383 11.773l.995.103zm18.532-12.621l.047.497h.002l.01-.001.038-.003.157-.012c.139-.009.345-.021.611-.03.532-.019 1.3-.028 2.24.012 1.88.079 4.435.351 7.143 1.123 5.411 1.543 11.388 5.061 13.874 12.995l.954-.299c-2.62-8.36-8.942-12.058-14.554-13.658-2.804-.799-5.441-1.079-7.375-1.16a29.87 29.87 0 00-2.317-.012 18.366 18.366 0 00-.815.044l-.045.004-.012.001-.004.001c-.001 0-.002 0 .046.498zm24.599 14.432c-.21.454-.211.453-.211.453h-.001c-.001-.001 0 0 0 0l.006.003a3.085 3.085 0 01.189.107c.133.083.323.215.535.401.424.374.937.966 1.279 1.837.676 1.722.746 4.696-2.223 9.506l.851.525c3.065-4.966 3.135-8.277 2.303-10.396a5.732 5.732 0 00-1.55-2.222 5.026 5.026 0 00-.876-.621 2.46 2.46 0 00-.063-.033l-.019-.009-.006-.003-.002-.001-.001-.001-.211.454zm-.478 12.716l3.713 12.105.956-.293-3.713-12.105-.956.293zm3.79 11.659l-2.784 3.724.8.599 2.785-3.724-.801-.599zm-2.85 4.206l4.177 10.707.932-.363-4.177-10.708-.932.364zm-3.204 13.515l-8.354 13.035.842.54 8.354-13.036-.842-.539zm-8.35 13.029L68.81 290.369l.834.552 43.164-65.178-.834-.552zM52.982 329.252H41.843v1h11.14v-1zm-10.654.379l-3.248-13.036-.97.242 3.248 13.036.97-.242zm-3.278-12.708l16.708-36.779-.91-.414-16.709 36.779.91.414zm16.626-36.653l51.982-58.194-.746-.666-51.982 58.194.746.666zm51.982-58.193l8.354-9.312-.745-.667-8.354 9.311.745.668zm7.982-9.145h5.105v-1h-5.105v1zm-18.065-69.403v-21.881h-1v21.881h1zm-.98-21.739l6.498 21.881.959-.285-6.498-21.881-.959.285zm28.785 42.056l-2.321 6.517.942.336 2.321-6.518-.942-.335zm-1.377 6.523c-2.854-8.349-9.167-12.044-14.723-13.645-2.774-.799-5.368-1.08-7.267-1.161a28.702 28.702 0 00-2.271-.012 20.354 20.354 0 00-.798.045l-.044.004-.012.001h-.004c-.001 0-.002 0 .047.498l.049.497h.002l.008-.001.038-.003.152-.011c.136-.01.338-.021.598-.031.52-.018 1.271-.027 2.192.012 1.843.079 4.355.351 7.034 1.123 5.351 1.542 11.337 5.062 14.053 13.008l.946-.324zm-25.072-14.27l.026-.5h-.001H98.942l-.041-.002-.155-.005a20.161 20.161 0 00-.576-.007 28.87 28.87 0 00-2.053.081c-1.7.125-3.99.435-6.33 1.178-4.68 1.486-9.657 4.743-10.382 11.774l.994.102c.668-6.471 5.205-9.498 9.691-10.923 2.243-.712 4.45-1.012 6.1-1.134a27.86 27.86 0 011.982-.078c.237 0 .422.003.547.006l.141.005.035.002h.01l.026-.499zM80.35 168.446l-1.856-3.725-.895.446 1.856 3.725.895-.446zm-1.856-3.725l-1.857-3.724-.895.446 1.857 3.724.895-.446zm-2.304-3.501h.5v-.007-.031l.005-.129c.005-.116.015-.29.036-.514.042-.448.126-1.098.296-1.892a19.874 19.874 0 012.377-6.016l-.858-.513a20.866 20.866 0 00-2.497 6.321 17.446 17.446 0 00-.313 2.007 11.457 11.457 0 00-.046.757v.017h.5zm3.201-8.569c.939-1.412 1.815-2.719 3.11-3.585l-.555-.832c-1.49.996-2.47 2.482-3.388 3.864l.833.553zm3.187-3.648c1.316-1.321 3.091-2.221 5.401-3.148l-.372-.928c-2.331.935-4.27 1.897-5.737 3.37l.708.706zm5.374-3.138c2.777-.929 5.497-1.836 9.588-1.836v-1c-4.263 0-7.113.954-9.906 1.888l.318.948zm9.588-1.836h6.498v-1h-6.498v1zm6.415-.007c2.794.467 5.555.929 7.387 1.388l.243-.97c-1.88-.471-4.689-.94-7.465-1.404l-.165.986zm7.299 1.357l6.033 2.793.42-.907-6.033-2.793-.42.907zm5.965 2.755c1.408.942 2.711 1.821 3.575 3.12l.833-.553c-.993-1.494-2.475-2.477-3.852-3.398l-.556.831zm3.637 3.197c1.375 1.378 2.701 3.174 3.129 4.46l.949-.315c-.501-1.508-1.959-3.437-3.37-4.851l-.708.706zm3.135 4.477c1.36 3.637 1.361 6.821 1.361 8.205h1c0-1.409.001-4.743-1.424-8.555l-.937.35zm23.936-11.339l-24.135 10.709.406.914 24.135-10.709-.406-.914zm-23.515 10.889c-.226-.34-.454-.71-.693-1.104-.238-.391-.488-.804-.753-1.217-.53-.826-1.132-1.676-1.866-2.411l-.708.706c.659.661 1.217 1.441 1.732 2.245.257.401.5.803.741 1.198.239.392.476.778.714 1.137l.833-.554zm-3.558-3.891l27.384-6.053-.216-.976-27.384 6.052.216.977zm8.772-21.27l-12.996 17.691.806.592 12.996-17.691-.806-.592zm-12.369 17.54c-1.856-.93-3.729-1.87-6.071-2.81l-.373.928c2.299.923 4.139 1.845 5.996 2.776l.448-.894zm-5.949-1.952l19.029-14.898-.616-.788-19.03 14.898.617.788zm42.782 13.544l-28.312 4.19.147.989 28.312-4.19-.147-.989zm-27.738 4.684v-5.12h-1v5.12h1zm-.517-4.621l28.312.932.033-1-28.312-.931-.033.999zm-38.692-14.465c-2.383.956-4.296 2.395-5.661 3.307l.556.832c1.42-.95 3.219-2.305 5.477-3.211l-.372-.928zm-5.025 3.375L65.41 131.076l-.718.697L81.4 148.998l.717-.696zm-17.333-16.454l22.278 13.967.532-.848-22.278-13.966-.532.847zM78.51 152.34H57.16v1h21.35v-1zm-21.41 2.858l19.03 2.328.12-.992-19.029-2.328-.121.992zm20.946 9.246l-14.852.001v1l14.853-.001v-1zm-14.472.176l-2.785-3.259-.76.649 2.785 3.26.76-.65zm-3.165-2.434h15.78v-1h-15.78v1zm15.346-.253l1.857 3.259.869-.495-1.857-3.259-.869.495zm134.139 108.902l-9.747 16.294.858.514 9.747-16.295-.858-.513zm-8.921 16.247c-2.393-3.12-5.043-4.459-7.114-5.009a10.494 10.494 0 00-2.545-.359 7.628 7.628 0 00-.948.046l-.057.008a.187.187 0 00-.017.003h-.006l-.001.001h-.001l.082.493.081.493.008-.001.037-.005c.036-.004.091-.011.164-.017.147-.012.366-.024.646-.021.56.007 1.36.076 2.3.325 1.874.498 4.329 1.719 6.578 4.651l.793-.608zm-11.001-5.126l-12.067 15.364.786.617 12.068-15.363-.787-.618zm-11.974 16.072l5.569 4.19.601-.799-5.569-4.19-.601.799zm5.382 3.899l.928 4.19.976-.217-.928-4.19-.976.217zm1.036 3.757l-5.57 6.517.761.65 5.569-6.518-.76-.649zm-5.544 7.195l4.178 4.19.708-.706-4.177-4.19-.709.706zm4.12 3.553l-15.78 22.812.823.569 15.78-22.812-.823-.569zm-15.782 22.815l-6.033 8.845.826.564 6.033-8.846-.826-.563zm-5.123 9.076l-1.392-13.501-.995.102 1.392 13.501.995-.102zm-1.393-13.506l-5.105-45.159-.994.112 5.105 45.159.994-.112zm-5.602-44.603h1.856v-1h-1.856v1zm26.635-38.264l28.312 19.553.568-.823-28.312-19.553-.568.823zm1.185 64.675l-6.034 32.589.983.182 6.034-32.589-.983-.182zm-5.586 32.182l-15.78 1.397.088.996 15.78-1.397-.088-.996zm-15.236 1.895v-1.863h-1v1.863h1zm-.087-1.581l6.033-8.845-.826-.564-6.033 8.846.826.563zm6.031-8.843l15.781-22.812-.823-.569-15.78 22.812.822.569zm15.869-23.096l.001-.465-1-.001-.001.465 1 .001zm18.584-18.443c-1.619 2.32-4.631 6.387-7.242 9.88a1435.6 1435.6 0 01-3.386 4.508l-1.043 1.382-.285.377a5.362 5.362 0 00-.098.129l-.001.002h-.001l.399.302.398.302h.001l.001-.002.005-.006a.335.335 0 01.019-.025l.074-.099.286-.377a1663.256 1663.256 0 004.432-5.895c2.609-3.49 5.631-7.57 7.261-9.906l-.82-.572zm-11.75 16.089l-7.426 1.397.185.983 7.426-1.397-.185-.983zm-.371-32.563l.041.498h-.001H190.414l.039-.002a7.93 7.93 0 01.818.017c.564.042 1.37.153 2.317.432 1.89.558 4.354 1.788 6.603 4.496l.769-.639c-2.392-2.88-5.034-4.21-7.089-4.816a12.166 12.166 0 00-2.527-.47 8.752 8.752 0 00-.94-.019 2.03 2.03 0 00-.057.003l-.016.001-.005.001h-.002-.001l.042.498zm10.21 4.621a.525.525 0 00-.517.436c-.026.147.018.271.03.306.035.102.096.216.153.315.12.21.314.517.533.87.446.722 1.041 1.718 1.55 2.851 1.034 2.305 1.623 4.982.162 7.075l.82.572c1.789-2.563.985-5.705-.07-8.056-.536-1.195-1.159-2.236-1.612-2.968-.231-.374-.406-.65-.515-.84a2.61 2.61 0 01-.059-.108c-.015-.03-.018-.04-.016-.035a.22.22 0 01.01.041c.003.021.011.075-.001.146a.476.476 0 01-.468.395v-1zm-38.984 63.318h-1.395v1h1.395v-1zm-.994.8l1.394-1.865-.801-.599-1.394 1.865.801.599zm.494-2.165v1.865h1v-1.865h-1zm8.433-79.417l-12.996 20.02.839.544 12.995-20.019-.838-.545zm-12.698 19.807l-1.857.465.243.97 1.857-.465-.243-.97zm-1.239.891l-4.177-35.382-.993.117 4.177 35.383.993-.118zm-4.177-35.38l-2.784-24.209-.994.114 2.785 24.209.993-.114zm-3.767-24.036l6.033 25.141.973-.234-6.034-25.14-.972.233zm6.194 25.404l15.781 13.501.65-.76-15.78-13.501-.651.76zm15.606 13.121v.466h1v-.466h-1zm.5 158.255h-9.747v1h9.747v-1zm-40.037-212.705l7.426 1.862.244-.97-7.427-1.862-.243.97zm7.146 1.674l10.675 14.432.804-.595-10.675-14.431-.804.594zm17.541 73.777l4.642 45.16.994-.103-4.641-45.159-.995.102zm4.644 45.177l1.856 13.501.991-.137-1.857-13.501-.99.137zm1.951 13.133l-1.392 1.862.801.599 1.392-1.862-.801-.599zm-.992 2.662h1.393v-1h-1.393v1zm.896-.445l5.105 45.625.994-.111-5.105-45.625-.994.111zm5.105 45.62l3.249 31.658.994-.102-3.249-31.658-.994.102zm-54.77 38.568l-.928 20.484.999.046.928-20.485-.999-.045zm-.578 20.984l7.426 2.328.299-.954-7.426-2.328-.299.954zm7.284 1.445l-65.442 47.021.583.812 65.442-47.021-.583-.812zM52.72 504.375l-6.034 3.725.525.851 6.034-3.725-.525-.851zm-5.271 4.15V365.134h-1v143.391h1zm-.008-143.307l6.034-35.382-.986-.168-6.033 35.382.985.168zm64.915 50.173l-.929 19.553.999.047.928-19.553-.998-.047zm51.981 12.594v54.47h1v-54.47h-1zm.093 54.18l-4.641 6.517.814.58 4.642-6.517-.815-.58zm-3.735 6.845l4.641-60.987-.997-.076-4.641 60.987.997.076zM33.953 31.295H25.6v1h8.354v-1zm-8.354.5l.337-.369-.005-.004-.018-.018a10.88 10.88 0 01-.365-.366 14.573 14.573 0 01-.946-1.105c-.733-.948-1.564-2.26-2.004-3.75-.438-1.48-.486-3.122.318-4.775.807-1.66 2.505-3.396 5.692-4.994l-.448-.894c-3.312 1.66-5.21 3.532-6.143 5.45-.937 1.927-.87 3.835-.378 5.497.488 1.653 1.397 3.076 2.172 4.078a15.567 15.567 0 001.328 1.502l.088.086.025.023a.45.45 0 01.007.006l.002.002.338-.369zm3.009-15.381c6.552-3.287 10.663-6.816 13.141-9.538 1.239-1.361 2.068-2.519 2.59-3.342.262-.412.446-.74.566-.968a8.016 8.016 0 00.168-.336l.01-.02a5.475 5.475 0 00.003-.009L44.628 2l-.458-.2a.527.527 0 00-.006.013l-.026.056c-.024.05-.063.128-.117.23-.108.205-.28.51-.526.899-.493.777-1.287 1.888-2.485 3.205-2.396 2.63-6.407 6.085-12.85 9.317l.448.894zM44.628 2l-.484.126v.001l.002.004.004.015a31.083 31.083 0 01.292 1.26c.178.818.412 1.99.635 3.393.447 2.812.848 6.543.676 10.25-.172 3.718-.919 7.348-2.714 10.008-1.77 2.623-4.594 4.35-9.073 4.239l-.025 1c4.803.12 7.956-1.76 9.927-4.68 1.946-2.883 2.708-6.731 2.884-10.52.176-3.8-.235-7.606-.687-10.453a63.007 63.007 0 00-.645-3.45 45.922 45.922 0 00-.307-1.317v-.002L44.627 2zm-5.105 29.296H26.527v1h12.996v-1zm-13.496.5v9.31h1v-9.31h-1zm.5 9.81h12.996v-1H26.527v1zm13.496-.5v-9.31h-1v9.31h1zm11.567-.5H14.46v1h37.13v-1zm-37.63.5v10.709h1V41.107h-1zm.5 11.209h37.13v-1H14.46v1zm37.63-.5V41.107h-1v10.708h1zm-3.285-.966H16.78v1h32.025v-1zm-32.525.5v3.725h1V51.35h-1zm.5 4.225h32.025v-1H16.78v1zm32.525-.5V51.35h-1v3.725h1zm-6.998 4.62H23.278v1h19.03v-1zm-19.529.5v4.191h1v-4.19h-1zm.5 4.691h19.03v-1h-19.03v1zm19.53-.5v-4.19h-1v4.19h1zm-7.962 5.12v25.606h1V69.506h-1zm.686 25.142l-6.962-2.793-.372.928 6.961 2.793.373-.928zM28.56 91.85l-3.713-1.397-.352.936 3.713 1.397.352-.936zm-3.396-1.009l-3.249-20.019-.987.16 3.25 20.02.986-.16zm-3.676-19.443l6.962-.931-.133-.991-6.962.93.133.992zm6.929-.928l6.962-.465-.067-.998-6.962.465.067.998zm9.677-6.085v38.175h1V64.385h-1zm.5 37.675h-10.21v1h10.21v-1zm-9.71.5V92.318h-1v10.242h1zm0-32.589v-5.587h-1v5.587h1zm-.5-5.087h10.21v-1h-10.21v1zm30.658 106.804l-5.106 9.311.877.481 5.106-9.311-.877-.481zm-5.1 9.302L43.73 198.68l.866.5 10.21-17.691-.865-.499zm-9.283 17.867l-4.177-28.398-.99.145 4.177 28.399.99-.146zm-4.172-28.325v-.931h-1v.931h1zm-.006-1.008l-4.177-27.002-.988.153 4.177 27.002.988-.153zm-4.174-26.98l-2.785-25.605-.994.108 2.785 25.605.994-.108zm-2.794-25.661l-3.25-14.432-.975.219 3.25 14.432.975-.219zm-3.737-13.823h8.818v-1h-8.818v1zm9.318-.5V67.644h-1v34.916h1zm-.932-34.666l8.354 14.432.866-.5-8.355-14.433-.865.501zm8.287 14.182v20.484h1V82.076h-1zm.5 20.484l-.487.112v.004l.003.012.011.048.043.188.166.72.603 2.615a1535.3 1535.3 0 001.96 8.347c1.506 6.337 3.25 13.455 4.185 16.5l.956-.293c-.923-3.008-2.66-10.089-4.169-16.438a1563.145 1563.145 0 01-2.726-11.674l-.043-.188-.011-.048a.22.22 0 01-.003-.012v-.003-.001l-.488.111zm6.493 28.574c.675 1.805 1.365 5.362 1.946 9.383.579 4.003 1.042 8.413 1.273 11.891l.997-.066c-.232-3.505-.698-7.941-1.28-11.968-.58-4.011-1.281-7.67-1.999-9.59l-.937.35zm3.218 21.241c0 .23-.001.618.064 1.013.064.384.203.859.546 1.202l.708-.706c-.122-.122-.215-.345-.267-.66a5.2 5.2 0 01-.051-.849h-1zm.47 1.944c.23 1.379.344 2.528.401 3.329a24.867 24.867 0 01.056 1.167v.078h1v-.001-.002-.005-.018-.068a25.471 25.471 0 00-.058-1.222 37.175 37.175 0 00-.412-3.422l-.986.164zm.46 4.627l1.393 13.035.994-.106-1.392-13.035-.994.106zm-25.063-41.908l2.32 25.605.996-.091-2.32-25.605-.996.091zm3.313 25.485l-6.034-40.038-.989.149 6.034 40.038.989-.149zm-7.012-39.839l3.713 14.433.968-.249-3.713-14.433-.968.249zm26.936 177.06l-7.426-17.692-.922.387 7.426 17.692.922-.387zm-7.49-17.802l-4.642-6.053-.793.609 4.641 6.052.794-.608zm-4.579-5.552l2.785-6.518-.92-.392-2.784 6.517.92.393zm2.71-7.034l-4.641-5.586-.77.639 4.642 5.586.769-.639zm-4.531-5.194l1.856-12.57-.989-.146-1.857 12.57.99.146zm1.54-13.11L27.635 225l-.358.934 15.78 6.052.359-.934zm-15.459-5.585v-30.261h-1v30.261h1zm-.04-30.065l11.14-26.071-.92-.393-11.14 26.072.92.392zm10.68-25.767h.464v-1h-.465v1zm21.38 2.223l-1.857-13.036-.99.141 1.857 13.036.99-.141zm-2.706-12.612l2.785 2.793.708-.706-2.784-2.793-.709.706zm5.57 6.052l1.857 1.862.708-.706-1.857-1.862-.708.706zm1.71 1.509v3.725h1v-3.725h-1zm.13 4.06l4.641 5.121.741-.671-4.64-5.121-.742.671zm4.52 4.696l-.928 5.122.984.178.928-5.121-.984-.179zm-.878 5.445l3.713 6.984.883-.47-3.713-6.983-.883.469zm3.79 7.091l14.388 15.363.73-.683-14.388-15.364-.73.684zm14.364 15.336l6.034 7.449.777-.629-6.034-7.449-.777.629zm6.033 7.448l7.89 9.777.779-.628-7.89-9.777-.779.628zm8.504 9.91l2.785-1.397-.449-.894-2.785 1.397.449.894zm2.798-1.404l12.067-6.517-.475-.88-12.067 6.517.475.88zm-64.26-50.343l-1.856-10.243-.984.179 1.857 10.242.983-.178zm-1.851-10.21l-1.857-16.295-.993.113 1.856 16.295.994-.113zm-2.848-16.162l4.178 27.003.988-.153-4.177-27.003-.989.153zM176.87 544.373v15.363h1v-15.363h-1zm.5 14.863H26.063v1h151.306v-1zm-150.806.5v-15.363h-1v15.363h1zm-.5-14.863h63.586v-1H26.063v1zm63.086-.5v.466h1v-.466h-1zm.5.5h87.72v-1h-87.72v1zm94.682 26.933H16.316v1h168.015v-1zm-167.62.807l9.747-12.57-.79-.613L15.92 572l.79.613zm160.22-12.634l6.963 12.569.874-.484-6.962-12.57-.875.485zm4.115 12.328v33.985h1v-33.985h-1zm.5 33.485h-79.83v1h79.83v-1zm-79.33.5V591.86h-1v14.432h1zm-.5-14.932H86.4v1h15.316v-1zm-15.816.5v14.432h1V591.86h-1zm.5 13.932H22.35v1H86.4v-1zm-63.55.5v-33.985h-1v33.985h1zm-.5-33.485h159.196v-1H22.35v1zm169.407 46.02H10.282v1h181.475v-1zm14.388-13.036H1v1h205.145v-1zm-205.645.5v13.036h1v-13.036h-1zm.5 13.536h205.145v-1H1v1zm205.645-.5v-13.036h-1v13.036h1zM101.252 591.36H86.4v1h14.852v-1zM86.4 606.792l14.852.001v-1l-14.852-.001v1zm15.352-.499V591.86h-1v14.433h1zm23.599-159.221v13.036h1v-13.036h-1zm.236 12.611l-32.953 20.485.528.849 32.953-20.485-.528-.849zm-32.949 20.482l-39.915 24.208.519.855 39.915-24.208-.519-.855zM110.5 248.243l-9.283 129.425.998.071 9.282-129.424-.997-.072zm-10.212 144.814l-.464 20.95 1 .022.464-20.95-1-.022zm-.463 20.932l-1.857 31.657.998.059 1.857-31.658-.998-.058zm35.277-82.775l11.139 83.8.991-.132-11.139-83.8-.991.132zm34.841 212.66H35.345v1h134.598v-1zm-134.202.806l17.637-22.813-.791-.611-17.637 22.812.791.612zm17.741-23.119v-16.76h-1v16.76h1zm106.214-93.577V533.2h1V427.984h-1zm.123 105.545l9.747 11.173.754-.657-9.747-11.173-.754.657zm-9.334-7.778v-75.886h-1v75.886h1zM288.033 94.282c0 .894-.111 1.795-.227 2.67-.114.857-.237 1.712-.237 2.451h1c0-.657.11-1.432.228-2.32.116-.871.236-1.833.236-2.8h-1zm.036 4.621H121.911v1h166.158v-1zm-165.684.343c-.908-2.734-1.367-5.939-1.367-9.154h-1c0 3.303.47 6.617 1.418 9.47l.949-.316zm-1.367-9.154c0-15.088 12.309-27.433 27.348-27.433v-1c-15.594 0-28.348 12.795-28.348 28.433h1zm27.348-27.433c3.2 0 6.378.458 9.549 1.822l.395-.92c-3.326-1.43-6.646-1.902-9.944-1.902v1zm10.236 1.463c3.203-15.604 16.928-27.534 33.856-27.534v-1c-17.417 0-31.54 12.278-34.835 28.333l.979.2zm33.856-27.534c15.089 0 27.904 10.093 32.481 23.406l.945-.325c-4.706-13.69-17.882-24.081-33.426-24.081v1zm33.197 23.68c4.091-2.28 8.181-3.196 13.216-3.196v-1c-5.175 0-9.439.946-13.703 3.322l.487.874zm13.216-3.196c11.844 0 21.417 7.306 25.526 17.839l.931-.364c-4.245-10.883-14.165-18.475-26.457-18.475v1zm26.15 18.131c1.3-.434 3.067-.44 4.483-.44v-1c-1.369 0-3.315-.005-4.8.492l.317.948zm4.483-.44c9.911 0 18.529 9.063 18.529 19.52h1c0-10.96-9.018-20.52-19.529-20.52v1zM569.5 379.277c0 .894-.112 1.795-.228 2.669-.114.858-.236 1.713-.236 2.452h1c0-.657.11-1.432.228-2.32.115-.872.236-1.833.236-2.801h-1zm.036 4.621H403.377v1h166.159v-1zm-165.684.343c-.909-2.734-1.367-5.939-1.367-9.154h-1c0 3.303.47 6.616 1.418 9.469l.949-.315zm-1.367-9.154c0-15.088 12.309-27.433 27.348-27.433v-1c-15.594 0-28.348 12.795-28.348 28.433h1zm27.348-27.433c3.199 0 6.377.458 9.549 1.821l.395-.918c-3.327-1.43-6.646-1.903-9.944-1.903v1zm10.236 1.463c3.203-15.604 16.928-27.534 33.856-27.534v-1c-17.417 0-31.54 12.278-34.836 28.332l.98.202zm33.856-27.534c15.089 0 27.904 10.093 32.48 23.406l.946-.326c-4.706-13.689-17.882-24.08-33.426-24.08v1zm33.197 23.68c4.09-2.28 8.181-3.196 13.216-3.196v-1c-5.176 0-9.44.946-13.703 3.322l.487.874zm13.216-3.196c11.844 0 21.416 7.306 25.525 17.839l.932-.364c-4.245-10.883-14.166-18.475-26.457-18.475v1zm26.15 18.131c1.299-.435 3.067-.44 4.483-.44v-1c-1.369 0-3.315-.005-4.8.492l.317.948zm4.483-.44c9.91 0 18.529 9.063 18.529 19.519h1c0-10.959-9.018-20.519-19.529-20.519v1zm-125.78 13.036h92.362v-1h-92.362v1zm89.544-159.727c0 .894-.111 1.795-.227 2.669-.114.858-.237 1.712-.237 2.452h1c0-.657.11-1.432.228-2.32.116-.872.236-1.833.236-2.801h-1zm.036 4.621H348.613v1h166.158v-1zm-165.684.342c-.908-2.734-1.366-5.938-1.366-9.153h-1c0 3.303.47 6.616 1.417 9.469l.949-.316zm-1.366-9.153c0-15.089 12.309-27.434 27.347-27.434v-1c-15.594 0-28.347 12.796-28.347 28.434h1zm27.347-27.434c3.2 0 6.378.459 9.55 1.822l.395-.919c-3.327-1.43-6.647-1.903-9.945-1.903v1zm10.237 1.463c3.202-15.603 16.927-27.534 33.856-27.534v-1c-17.418 0-31.541 12.278-34.836 28.333l.98.201zm33.856-27.534c15.089 0 27.903 10.093 32.48 23.406l.946-.325c-4.707-13.69-17.883-24.081-33.426-24.081v1zm33.196 23.68c4.091-2.279 8.181-3.195 13.216-3.195v-1c-5.175 0-9.439.946-13.703 3.322l.487.873zm13.216-3.195c11.844 0 21.417 7.305 25.526 17.838l.932-.363c-4.246-10.883-14.166-18.475-26.458-18.475v1zm26.15 18.131c1.3-.435 3.067-.44 4.483-.44v-1c-1.369 0-3.315-.005-4.8.491l.317.949zm4.483-.44c9.918 0 18.529 8.605 18.529 19.519h1c0-11.433-9.025-20.519-19.529-20.519v1zm-139.703 16.295h135.526v-1H356.503v1zm-316.48-36.984v-2.327h-1v2.327h1zm28.742 117.594L52.521 329.56l.923.384 16.245-39.107-.924-.384zm88.6-.465l25.063-38.175-.836-.549-25.063 38.176.836.548z" fill="#836310" fill-opacity=".5"/></svg>