<svg width="45" height="40" viewBox="0 0 45 40" fill="none" xmlns="http://www.w3.org/2000/svg">
<path fill-rule="evenodd" clip-rule="evenodd" d="M33.93 34.1743C33.1552 34.27 32.4562 33.7186 32.3606 32.9343C32.2636 32.1514 32.8092 31.4371 33.5798 31.3386C38.4877 30.7143 42.1875 26.4543 42.1875 21.4286C42.1875 15.9143 37.7719 11.4286 32.3438 11.4286C32.1581 11.4286 31.9725 11.44 31.7869 11.4614C31.1344 11.5386 30.5184 11.1457 30.2991 10.5143C28.7198 5.93429 24.4547 2.85714 19.6875 2.85714C13.4845 2.85714 8.4375 7.98429 8.4375 14.2857C8.4375 14.8129 8.4825 15.3486 8.57531 15.9271C8.68781 16.62 8.28563 17.2943 7.62891 17.5143C4.7475 18.4786 2.8125 21.2014 2.8125 24.2857C2.8125 28.2243 5.96672 31.4286 9.84375 31.4286H11.2556C12.0319 31.4286 12.6619 32.0686 12.6619 32.8571C12.6619 33.6457 12.0319 34.2857 11.2556 34.2857H9.84375C4.41563 34.2857 0 29.8 0 24.2857C0 20.3657 2.23312 16.8643 5.66156 15.2386C5.63766 14.9171 5.625 14.6014 5.625 14.2857C5.625 6.40857 11.9334 0 19.6875 0C25.2956 0 30.3469 3.40429 32.5687 8.57286C39.4439 8.69571 45 14.4157 45 21.4286C45 27.8914 40.2412 33.37 33.93 34.1743ZM17.8692 31.8471L21.0938 35.1229V21.4286C21.0938 20.64 21.7237 20 22.5 20C23.2763 20 23.9062 20.64 23.9062 21.4286V35.1229L27.1308 31.8471C27.6806 31.2886 28.5694 31.2886 29.1192 31.8471C29.6691 32.4057 29.6691 33.3086 29.1192 33.8671L23.4942 39.5814C23.3648 39.7129 23.2087 39.8171 23.0372 39.89C22.8656 39.9614 22.6828 40 22.5 40C22.3172 40 22.1344 39.9614 21.9628 39.89C21.7898 39.8171 21.6352 39.7129 21.5058 39.5814L15.8808 33.8671C15.3309 33.3086 15.3309 32.4057 15.8808 31.8471C16.4306 31.2886 17.3194 31.2886 17.8692 31.8471Z" fill="#106E83"/>
</svg>

