<svg width="30" height="30" viewBox="0 0 30 30" fill="none" xmlns="http://www.w3.org/2000/svg">
<path d="M1.89536 29.6259C1.46177 30.0591 0.758783 30.0591 0.325193 29.6259C-0.108397 29.1927 -0.108397 28.4903 0.325193 28.0571L13.4186 14.9754L0.325193 1.89367C-0.108398 1.46047 -0.108398 0.758108 0.325193 0.324903C0.758784 -0.108301 1.46177 -0.108301 1.89536 0.324903L14.9888 13.4066L28.0821 0.324906C28.5157 -0.108298 29.2187 -0.108298 29.6523 0.324906C30.0859 0.75811 30.0859 1.46047 29.6523 1.89368L16.5589 14.9754L29.6523 28.0571C30.0859 28.4903 30.0859 29.1927 29.6523 29.6259C29.2187 30.0591 28.5157 30.0591 28.0821 29.6259L14.9888 16.5442L1.89536 29.6259Z" fill="#836310"/>
</svg>
