<svg width="19" height="17" viewBox="0 0 19 17" fill="none" xmlns="http://www.w3.org/2000/svg">
<path fill-rule="evenodd" clip-rule="evenodd" d="M14.326 14.5241C13.9988 14.5648 13.7037 14.3304 13.6634 13.9971C13.6224 13.6644 13.8528 13.3608 14.1782 13.3189C16.2503 13.0536 17.8125 11.2431 17.8125 9.10714C17.8125 6.76357 15.9481 4.85714 13.6562 4.85714C13.5779 4.85714 13.4995 4.862 13.4211 4.87111C13.1456 4.90389 12.8856 4.73693 12.7929 4.46857C12.1262 2.52207 10.3253 1.21429 8.3125 1.21429C5.69347 1.21429 3.5625 3.39332 3.5625 6.07143C3.5625 6.29546 3.5815 6.52314 3.62069 6.76904C3.66819 7.0635 3.49838 7.35007 3.22109 7.44357C2.0045 7.85339 1.1875 9.01061 1.1875 10.3214C1.1875 11.9953 2.51928 13.3571 4.15625 13.3571H4.75237C5.08012 13.3571 5.34612 13.6291 5.34612 13.9643C5.34612 14.2994 5.08012 14.5714 4.75237 14.5714H4.15625C1.86438 14.5714 0 12.665 0 10.3214C0 8.65543 0.942875 7.16732 2.39044 6.47639C2.38034 6.33979 2.375 6.20561 2.375 6.07143C2.375 2.72364 5.03856 0 8.3125 0C10.6804 0 12.8131 1.44682 13.7513 3.64346C16.6541 3.69568 19 6.12668 19 9.10714C19 11.8539 16.9907 14.1823 14.326 14.5241ZM7.54478 13.535L8.90625 14.9272V9.10714C8.90625 8.772 9.17225 8.5 9.5 8.5C9.82775 8.5 10.0938 8.772 10.0938 9.10714V14.9272L11.4552 13.535C11.6874 13.2976 12.0626 13.2976 12.2948 13.535C12.5269 13.7724 12.5269 14.1561 12.2948 14.3935L9.91978 16.8221C9.86516 16.878 9.79925 16.9223 9.72681 16.9533C9.65438 16.9836 9.57719 17 9.5 17C9.42281 17 9.34562 16.9836 9.27319 16.9533C9.20016 16.9223 9.13484 16.878 9.08022 16.8221L6.70522 14.3935C6.47306 14.1561 6.47306 13.7724 6.70522 13.535C6.93738 13.2976 7.31262 13.2976 7.54478 13.535Z" fill="#106E83"/>
</svg>
