<svg width="17" height="15" viewBox="0 0 17 15" fill="none" xmlns="http://www.w3.org/2000/svg">
<path fill-rule="evenodd" clip-rule="evenodd" d="M16.3778 3.20109C16.3667 3.21047 16.3523 3.21375 16.3411 3.22219C16.3305 3.23391 16.3257 3.24797 16.314 3.25828L15.2521 4.19578C15.2515 4.19578 15.2515 4.19578 15.2515 4.19578L4.76666 13.4498C4.76613 13.4498 4.76559 13.4503 4.76559 13.4508L4.76347 13.4527C4.73898 13.4742 4.70811 13.4845 4.68096 13.5009C4.65115 13.5192 4.6256 13.5417 4.59101 13.5544L4.58781 13.5553C4.58781 13.5558 4.58728 13.5558 4.58728 13.5558L0.741016 14.9644C0.675545 14.9883 0.605816 15 0.537684 15C0.399824 15 0.26356 14.9522 0.161894 14.8627C0.0101937 14.7286 -0.0355825 14.527 0.0469211 14.3517L1.64376 10.9533C1.64909 10.942 1.65973 10.9345 1.66612 10.9237C1.69114 10.8802 1.71882 10.837 1.75874 10.8014L13.3092 0.606094C13.321 0.59625 13.3359 0.5925 13.3476 0.583594C13.3577 0.572812 13.3619 0.559687 13.3731 0.549375C13.7739 0.195469 14.3078 0 14.8752 0C15.4432 0 15.976 0.195 16.3778 0.549375C16.7792 0.903281 17.0001 1.37437 17.0001 1.87547C16.9995 2.37609 16.7786 2.84719 16.3778 3.20109ZM1.51974 13.6641L3.45033 12.9572L2.32083 11.9602L1.51974 13.6641ZM4.38767 12.4584L14.1252 3.86438L12.6226 2.53781L2.88558 11.1328L4.38767 12.4584ZM15.6268 1.21219C15.2255 0.857812 14.5255 0.858281 14.1252 1.21172C14.1135 1.22203 14.0986 1.22578 14.0858 1.23516C14.0757 1.24547 14.072 1.25906 14.0603 1.26891L13.3736 1.875L14.8763 3.20156L15.5629 2.59547C15.5736 2.58609 15.5879 2.58281 15.5991 2.57438C15.6098 2.56266 15.6145 2.54859 15.6268 2.53781C15.8275 2.36109 15.9376 2.12578 15.9376 1.87547C15.9376 1.62469 15.8275 1.38937 15.6268 1.21219Z" fill="#106E83"/>
</svg>
