<svg width="41" height="40" viewBox="0 0 41 40" fill="none" xmlns="http://www.w3.org/2000/svg">
<g clip-path="url(#clip0)">
<path fill-rule="evenodd" clip-rule="evenodd" d="M38.7097 40H2.58065C1.15871 40 0 38.8426 0 37.4194V2.58065C0 1.15742 1.15871 0 2.58065 0H38.7097C40.1329 0 41.2903 1.15742 41.2903 2.58065V37.4194C41.2903 38.8426 40.1329 40 38.7097 40ZM2.58065 2.58065V37.4194H38.7058L38.7097 2.58065H2.58065ZM34.8387 33.5484H32.2581C31.5445 33.5484 30.9677 32.9703 30.9677 32.2581V30.9677C30.9677 30.2555 31.5445 29.6774 32.2581 29.6774H34.8387C35.5523 29.6774 36.129 30.2555 36.129 30.9677V32.2581C36.129 32.9703 35.5523 33.5484 34.8387 33.5484ZM34.8387 25.8064H32.2581C31.5445 25.8064 30.9677 25.2284 30.9677 24.5161V23.2258C30.9677 22.5135 31.5445 21.9355 32.2581 21.9355H34.8387C35.5523 21.9355 36.129 22.5135 36.129 23.2258V24.5161C36.129 25.2284 35.5523 25.8064 34.8387 25.8064ZM34.8387 18.0645H32.2581C31.5445 18.0645 30.9677 17.4865 30.9677 16.7742V15.4839C30.9677 14.7716 31.5445 14.1935 32.2581 14.1935H34.8387C35.5523 14.1935 36.129 14.7716 36.129 15.4839V16.7742C36.129 17.4865 35.5523 18.0645 34.8387 18.0645ZM34.8387 10.3226H32.2581C31.5445 10.3226 30.9677 9.74452 30.9677 9.03226V7.74194C30.9677 7.02968 31.5445 6.45161 32.2581 6.45161H34.8387C35.5523 6.45161 36.129 7.02968 36.129 7.74194V9.03226C36.129 9.74452 35.5523 10.3226 34.8387 10.3226ZM9.03226 33.5484H6.45161C5.73806 33.5484 5.16129 32.9703 5.16129 32.2581V30.9677C5.16129 30.2555 5.73806 29.6774 6.45161 29.6774H9.03226C9.74581 29.6774 10.3226 30.2555 10.3226 30.9677V32.2581C10.3226 32.9703 9.74581 33.5484 9.03226 33.5484ZM9.03226 25.8064H6.45161C5.73806 25.8064 5.16129 25.2284 5.16129 24.5161V23.2258C5.16129 22.5135 5.73806 21.9355 6.45161 21.9355H9.03226C9.74581 21.9355 10.3226 22.5135 10.3226 23.2258V24.5161C10.3226 25.2284 9.74581 25.8064 9.03226 25.8064ZM9.03226 18.0645H6.45161C5.73806 18.0645 5.16129 17.4865 5.16129 16.7742V15.4839C5.16129 14.7716 5.73806 14.1935 6.45161 14.1935H9.03226C9.74581 14.1935 10.3226 14.7716 10.3226 15.4839V16.7742C10.3226 17.4865 9.74581 18.0645 9.03226 18.0645ZM9.03226 10.3226H6.45161C5.73806 10.3226 5.16129 9.74452 5.16129 9.03226V7.74194C5.16129 7.02968 5.73806 6.45161 6.45161 6.45161H9.03226C9.74581 6.45161 10.3226 7.02968 10.3226 7.74194V9.03226C10.3226 9.74452 9.74581 10.3226 9.03226 10.3226Z" fill="#1B1B1B"/>
</g>
<defs>
<clipPath id="clip0">
<rect width="41" height="40" fill="white"/>
</clipPath>
</defs>
</svg>
