<svg width="19" height="19" viewBox="0 0 19 19" fill="none" xmlns="http://www.w3.org/2000/svg">
<path d="M4.56276 7.222C4.42032 7.30422 4.29893 7.41749 4.20795 7.55309C4.11697 7.68869 4.05881 7.84302 4.03795 8.0042C4.01709 8.16538 4.03408 8.32912 4.08761 8.48282C4.14115 8.63653 4.22981 8.77611 4.34676 8.89083L10.2601 14.7084C10.3767 14.8234 10.5186 14.9107 10.6748 14.9633C10.8311 15.016 10.9975 15.0327 11.1614 15.0122C11.3252 14.9917 11.4821 14.9344 11.6199 14.8449C11.7577 14.7554 11.8729 14.636 11.9564 14.4959C12.6569 13.3104 12.8658 11.9049 12.5396 10.5717L17.2412 7.62858C17.3778 7.54305 17.4931 7.42841 17.5785 7.29314C17.6639 7.15788 17.7174 7.00544 17.7349 6.84712C17.7524 6.68879 17.7335 6.52862 17.6795 6.37846C17.6256 6.22829 17.5381 6.09197 17.4234 5.97958L13.2179 1.8422C13.1035 1.72974 12.9649 1.64399 12.8123 1.59127C12.6597 1.53855 12.4971 1.52022 12.3363 1.53763C12.1756 1.55503 12.0208 1.60773 11.8836 1.69183C11.7463 1.77593 11.63 1.88929 11.5432 2.02354L8.55156 6.64825C7.19645 6.32742 5.76778 6.53292 4.56276 7.222V7.222Z" stroke="#106E83" stroke-width="1.5" stroke-linecap="round" stroke-linejoin="round"/>
<path d="M7.30122 11.7998L1.53906 17.4686" stroke="#106E83" stroke-width="1.5" stroke-linecap="round" stroke-linejoin="round"/>
</svg>
