<svg width="30" height="30" viewBox="0 0 30 30" fill="none" xmlns="http://www.w3.org/2000/svg">
<path fill-rule="evenodd" clip-rule="evenodd" d="M29.5209 8.51998V24.33C29.5209 25.3612 28.6929 26.2003 27.6757 26.2003H22.1409C21.6305 26.2003 21.2178 25.7822 21.2178 25.2656C21.2178 24.7481 21.6305 24.33 22.1409 24.33H27.6757V9.36467H21.2178C20.7083 9.36467 20.2957 8.94654 20.2957 8.42904V1.81686H11.0769C10.5674 1.81686 10.1474 1.46342 10.1474 0.946855C10.1474 0.429355 10.56 0.0112305 11.0705 0.0112305H21.2178C21.2382 0.0112305 21.2548 0.021543 21.2742 0.0224805C21.3582 0.0281055 21.4394 0.0449805 21.5197 0.0731055C21.5492 0.083418 21.5778 0.090918 21.6055 0.104043C21.6997 0.148105 21.7874 0.204355 21.864 0.280293C21.8668 0.283105 21.8695 0.284043 21.8714 0.286855L29.1508 7.66592C29.1803 7.68654 29.1951 7.72311 29.2209 7.74748C29.2477 7.77279 29.268 7.80186 29.292 7.82998C29.4342 7.99404 29.5394 8.19279 29.5394 8.42904C29.5394 8.46186 29.5246 8.48904 29.5209 8.51998ZM22.1409 3.20436V7.49436H26.3714L22.1409 3.20436ZM11.1258 3.76404C11.2108 3.76967 11.2911 3.78561 11.3714 3.81467C11.4009 3.82498 11.4295 3.83248 11.4582 3.84561C11.5514 3.88967 11.64 3.94592 11.7157 4.02186C11.7185 4.02467 11.7212 4.02561 11.724 4.02842L19.0025 11.4075C19.032 11.4281 19.0468 11.4647 19.0735 11.489C19.1003 11.5144 19.1206 11.5425 19.1437 11.5706C19.2858 11.7356 19.3911 11.9344 19.3911 12.1706C19.3911 12.2025 19.3763 12.2297 19.3735 12.2615V28.0715C19.3735 29.1028 18.5455 29.9419 17.5283 29.9419H1.84431C0.828 29.9419 0 29.1028 0 28.0715V5.62311C0 4.59186 0.828 3.75279 1.84431 3.75279H11.0705C11.0898 3.75279 11.1065 3.76311 11.1258 3.76404ZM11.9926 6.94592V11.235H16.2231L11.9926 6.94592ZM10.1474 12.1706V5.56686H1.84615L1.84431 28.0715H17.5283V13.0669H11.0769C10.5674 13.0669 10.1474 12.6872 10.1474 12.1706Z" fill="#106E83"/>
</svg>
